#N canvas 0 0 1792 1120 12;
#X obj 31 287 soundfiler;
#X floatatom 31 316 13 0 0 0 - - - 0 0 1, f 13;
#X obj 183 274 bng 41 250 50 0 empty empty empty 17 7 0 10 #fcfcfc
#000000 #000000 1;
#X obj 30 387 random;
#X obj 221 78 loadbang;
#X obj 24 223 pack s \$0;
#X obj 17 555 line~;
#X obj 28 419 t f f;
#X obj 34 518 pack f f;
#X obj 31 344 - 44100;
#X obj 34 489 + 44100;
#X floatatom 102 1364 5 0 0 0 - - - 0 0 1, f 5;
#X obj 123 1439 phasor~;
#X obj 123 1468 *~;
#X obj 270 285 soundfiler;
#X floatatom 270 314 13 0 0 0 - - - 0 0 1, f 13;
#X obj 422 272 bng 41 250 50 0 empty empty empty 17 7 0 10 #fcfcfc
#000000 #000000 1;
#X obj 269 385 random;
#X obj 263 221 pack s \$0;
#X obj 290 552 line~;
#X obj 267 445 t f f;
#X obj 273 516 pack f f;
#X obj 273 487 + 44100;
#X floatatom 269 414 5 0 0 0 - - - 0 0 1, f 5;
#X obj 270 342 - 22000;
#X obj 559 280 soundfiler;
#X floatatom 559 309 13 0 0 0 - - - 0 0 1, f 13;
#X obj 711 267 bng 41 250 50 0 empty empty empty 17 7 0 10 #fcfcfc
#000000 #000000 1;
#X obj 558 380 random;
#X obj 552 216 pack s \$0;
#X obj 568 579 line~;
#X obj 556 440 t f f;
#X obj 562 542 pack f f;
#X obj 562 482 + 44100;
#X floatatom 656 380 5 0 0 0 - - - 0 0 1, f 5;
#X msg 674 464 1000;
#X msg 633 464 2000;
#X obj 656 437 bng 15 250 50 0 empty empty empty 17 7 0 10 #fcfcfc
#000000 #000000 1;
#X obj 676 437 bng 15 250 50 0 empty empty empty 17 7 0 10 #fcfcfc
#000000 #000000 1;
#X obj 699 437 bng 15 250 50 0 empty empty empty 17 7 0 10 #fcfcfc
#000000 #000000 1;
#X floatatom 557 409 5 0 0 0 - - - 0 0 1, f 5;
#X obj 559 337 - 22000;
#X obj 828 283 soundfiler;
#X floatatom 834 312 13 0 0 0 - - - 0 0 1, f 13;
#X obj 978 281 bng 41 250 50 0 empty empty empty 17 7 0 10 #fcfcfc
#000000 #000000 1;
#X obj 827 383 random;
#X obj 826 224 pack s \$0;
#X obj 821 550 line~;
#X obj 816 438 t f f;
#X obj 835 513 pack f f;
#X obj 833 484 + 44100;
#X floatatom 816 411 5 0 0 0 - - - 0 0 1, f 5;
#X obj 817 341 - 22000;
#X obj 1068 282 soundfiler;
#X floatatom 1071 313 13 0 0 0 - - - 0 0 1, f 13;
#X obj 1227 291 bng 41 250 50 0 empty empty empty 17 7 0 10 #fcfcfc
#000000 #000000 1;
#X obj 1070 384 random;
#X obj 1064 220 pack s \$0;
#X obj 1057 552 line~;
#X obj 1068 444 t f f;
#X obj 1074 515 pack f f;
#X obj 1074 486 + 44100;
#X floatatom 1070 413 5 0 0 0 - - - 0 0 1, f 5;
#X obj 1071 341 - 22000;
#X obj 1303 285 soundfiler;
#X floatatom 1303 314 13 0 0 0 - - - 0 0 1, f 13;
#X obj 1448 273 bng 41 250 50 0 empty empty empty 17 7 0 10 #fcfcfc
#000000 #000000 1;
#X obj 1302 385 random;
#X obj 1296 221 pack s \$0;
#X obj 1289 553 line~;
#X obj 1300 445 t f f;
#X obj 1306 516 pack f f;
#X obj 1306 487 + 44100;
#X floatatom 1302 414 5 0 0 0 - - - 0 0 1, f 5;
#X obj 1303 342 - 22000;
#X obj 1524 286 soundfiler;
#X floatatom 1524 315 13 0 0 0 - - - 0 0 1, f 13;
#X obj 1676 273 bng 41 250 50 0 empty empty empty 17 7 0 10 #fcfcfc
#000000 #000000 1;
#X obj 1523 386 random;
#X obj 1517 222 pack s \$0;
#X obj 1510 554 line~;
#X obj 1521 446 t f f;
#X obj 1527 517 pack f f;
#X obj 1527 488 + 44100;
#X floatatom 1523 415 5 0 0 0 - - - 0 0 1, f 5;
#X obj 1524 343 - 22000;
#X msg 230 1429 44100;
#X obj 160 1391 bng 36 250 50 0 empty empty empty 17 7 0 10 #fcfcfc
#000000 #000000 1;
#X obj 218 1557 line~;
#X obj 123 1594 *~;
#X obj 292 1512 delay;
#X floatatom 324 1483 5 0 0 0 - - - 0 0 1, f 5;
#X obj 97 1315 r fastuno;
#X obj 324 1443 r duruno;
#X floatatom 414 1361 7 0 0 0 - - - 0 0 1, f 7;
#X obj 435 1436 phasor~;
#X obj 435 1465 *~;
#X msg 542 1426 44100;
#X obj 472 1388 bng 36 250 50 0 empty empty empty 17 7 0 10 #fcfcfc
#000000 #000000 1;
#X obj 530 1554 line~;
#X obj 412 1594 *~;
#X obj 604 1509 delay;
#X floatatom 636 1480 5 0 0 0 - - - 0 0 1, f 5;
#X floatatom 703 1368 5 0 0 0 - - - 0 0 1, f 5;
#X obj 724 1443 phasor~;
#X obj 724 1472 *~;
#X msg 831 1433 44100;
#X obj 761 1395 bng 36 250 50 0 empty empty empty 17 7 0 10 #fcfcfc
#000000 #000000 1;
#X obj 819 1561 line~;
#X obj 701 1594 *~;
#X obj 893 1516 delay;
#X floatatom 925 1487 5 0 0 0 - - - 0 0 1, f 5;
#X obj 409 1312 r fastdue;
#X obj 698 1319 r fasttre;
#X obj 636 1440 r durdue;
#X obj 925 1447 r durtre;
#X msg 21 196 ../samples/a.wav;
#X msg 261 194 ../samples/b.wav;
#X msg 1294 195 ../samples/f.wav;
#X msg 524 184 ../samples/c.wav;
#X msg 818 194 ../samples/d.wav;
#X msg 1062 194 ../samples/e.wav;
#X msg 1515 196 ../samples/g.wav;
#X obj 165 199 table uno;
#X obj 398 196 table due;
#X msg 30 253 read -resize \$1 uno;
#X obj 17 584 tabread4~ uno;
#X msg 270 251 read -resize \$1 due;
#X obj 256 582 tabread4~ due;
#X obj 123 1504 tabread4~ uno;
#X obj 435 1501 tabread4~ due;
#X obj 664 185 table tre;
#X msg 559 246 read -resize \$1 tre;
#X obj 546 608 tabread4~ tre;
#X obj 949 195 table quattro;
#X msg 828 249 read -resize \$1 quattro;
#X obj 815 580 tabread4~ quattro;
#X obj 1197 196 table cinque;
#X msg 1071 250 read -resize \$1 cinque;
#X obj 1059 581 tabread4~ cinque;
#X obj 1423 196 table sei;
#X msg 1302 251 read -resize \$1 sei;
#X obj 1290 582 tabread4~ sei;
#X obj 1654 207 table sette;
#X msg 1525 253 read -resize \$1 sette;
#X obj 1511 583 tabread4~ sette;
#X obj 724 1508 tabread4~ tre;
#X obj 279 1313 loadbang;
#X msg 279 1342 3000;
#X obj 629 399 bng 15 250 50 0 empty empty empty 17 7 0 10 #fcfcfc
#000000 #000000 1;
#X obj 1241 1127 tgl 45 0 empty empty empty 17 7 0 10 #fcfcfc #000000
#000000 0 1 1;
#X obj 1241 1185 metro 1000;
#X obj 1241 1290 t b f b;
#X obj 1241 1336 i;
#X obj 1241 1358 t b f f;
#X obj 1325 1287 i;
#X obj 1344 1398 +, f 4;
#X obj 1344 1420 pack f f;
#X obj 1247 1470 line~;
#X obj 1343 1463 line~;
#X obj 1241 1314 delay 32;
#X msg 1230 1417 1 30;
#X msg 1273 1419 0 30;
#X floatatom 1340 1244 5 0 0 0 - - - 0 0 1, f 5;
#X obj 1346 1525 *~;
#X obj 1309 1327 * 44.1;
#X msg 1243 1256 10;
#X obj 1343 1486 tabread~ cinque;
#X msg 1567 1438 set uno;
#X obj 1241 1214 random 40000;
#X obj 1307 1563 *~;
#X obj 1404 1662 line~;
#X obj 1397 1535 r startvelox;
#X obj 1494 1535 r stopvelox;
#X floatatom 1589 1350 5 0 0 0 - - - 0 0 1, f 5;
#X obj 1589 1407 bng 15 250 50 0 empty empty empty 17 7 0 10 #fcfcfc
#000000 #000000 1;
#X obj 1608 1407 bng 15 250 50 0 empty empty empty 17 7 0 10 #fcfcfc
#000000 #000000 1;
#X obj 1627 1407 bng 15 250 50 0 empty empty empty 17 7 0 10 #fcfcfc
#000000 #000000 1;
#X obj 1468 1119 bng 66 250 50 0 empty empty empty 17 7 0 10 #fcfcfc
#000000 #000000 1;
#X obj 1646 1407 bng 15 250 50 0 empty empty empty 17 7 0 10 #fcfcfc
#000000 #000000 1;
#X obj 1665 1407 bng 15 250 50 0 empty empty empty 17 7 0 10 #fcfcfc
#000000 #000000 1;
#X obj 1684 1407 bng 15 250 50 0 empty empty empty 17 7 0 10 #fcfcfc
#000000 #000000 1;
#X obj 1703 1407 bng 15 250 50 0 empty empty empty 17 7 0 10 #fcfcfc
#000000 #000000 1;
#X msg 1626 1438 set due;
#X msg 1688 1438 set tre;
#X msg 1747 1438 set quattro;
#X msg 1629 1464 set cinque;
#X msg 1711 1464 set sei;
#X msg 1770 1464 set sette;
#X obj 1468 1194 random 25;
#X floatatom 1423 1280 5 0 0 0 - - - 0 0 1, f 5;
#X obj 1423 1251 random 3;
#X obj 1423 1309 sel 0 1 2;
#X msg 1416 1338 44.1;
#X msg 1459 1339 88.2;
#X msg 1500 1339 22.05;
#X obj 1590 1321 random 7;
#X obj 1589 1379 sel 0 1 2 3 4 5 6;
#X obj 184 153 r arch_details;
#X obj 428 154 r arch_views;
#X obj 667 154 r bestiary;
#X obj 974 155 r bodies;
#X obj 1202 154 r details;
#X obj 1455 155 r faces;
#X obj 1671 153 r surfaces;
#X obj 1764 296 soundfiler;
#X floatatom 1764 325 13 0 0 0 - - - 0 0 1, f 13;
#X obj 1916 283 bng 41 250 50 0 empty empty empty 17 7 0 10 #fcfcfc
#000000 #000000 1;
#X obj 1763 396 random;
#X obj 1757 232 pack s \$0;
#X obj 1750 564 line~;
#X obj 1761 456 t f f;
#X obj 1767 527 pack f f;
#X obj 1767 498 + 44100;
#X floatatom 1763 425 5 0 0 0 - - - 0 0 1, f 5;
#X obj 1764 353 - 22000;
#X obj 1894 217 table otto;
#X msg 1766 263 read -resize \$1 otto;
#X obj 1751 593 tabread4~ otto;
#X obj 1911 164 r views;
#X msg 1755 206 ../samples/h.wav;
#X msg 1403 1596 1;
#X msg 1477 1609 0;
#X obj 1468 1222 + 100;
#X obj 569 826 *~, f 21;
#X obj 567 861 dac~;
#X msg 1403 1567 1 500;
#X msg 1477 1580 0 500;
#X obj 763 658 tgl 16 0 empty empty empty 17 7 0 10 #fcfcfc #000000
#000000 1 1 1;
#X obj 759 683 metro 60000;
#X obj 759 712 random 1000;
#X obj 759 741 / 1000;
#N canvas 0 25 1792 996 ramps 0;
#X obj 336 239 inlet;
#X obj 336 297 line~;
#X obj 336 326 outlet~;
#X msg 336 268 \$1 10000;
#X connect 0 0 3 0;
#X connect 1 0 2 0;
#X connect 3 0 1 0;
#X restore 756 814 pd ramps;
#X obj 762 632 loadbang;
#X obj 720 437 bng 15 250 50 0 empty empty empty 17 7 0 10 #fcfcfc
#000000 #000000 1;
#X obj 656 351 random 6;
#X obj 656 408 sel 0 1 2 3 4 5;
#X obj 740 437 bng 15 250 50 0 empty empty empty 17 7 0 10 #fcfcfc
#000000 #000000 1;
#X floatatom 386 381 5 0 0 0 - - - 0 0 1, f 5;
#X msg 404 465 1000;
#X msg 450 465 500;
#X msg 363 465 2000;
#X obj 386 438 bng 15 250 50 0 empty empty empty 17 7 0 10 #fcfcfc
#000000 #000000 1;
#X obj 406 438 bng 15 250 50 0 empty empty empty 17 7 0 10 #fcfcfc
#000000 #000000 1;
#X obj 429 438 bng 15 250 50 0 empty empty empty 17 7 0 10 #fcfcfc
#000000 #000000 1;
#X obj 359 400 bng 15 250 50 0 empty empty empty 17 7 0 10 #fcfcfc
#000000 #000000 1;
#X msg 485 465 250;
#X obj 450 438 bng 15 250 50 0 empty empty empty 17 7 0 10 #fcfcfc
#000000 #000000 1;
#X msg 517 464 125;
#X obj 386 352 random 6;
#X obj 386 409 sel 0 1 2 3 4 5;
#X obj 435 564 + 250;
#X obj 470 438 bng 15 250 50 0 empty empty empty 17 7 0 10 #fcfcfc
#000000 #000000 1;
#X floatatom 105 380 5 0 0 0 - - - 0 0 1, f 5;
#X msg 123 464 1000;
#X msg 169 464 500;
#X msg 82 464 2000;
#X obj 105 437 bng 15 250 50 0 empty empty empty 17 7 0 10 #fcfcfc
#000000 #000000 1;
#X obj 125 437 bng 15 250 50 0 empty empty empty 17 7 0 10 #fcfcfc
#000000 #000000 1;
#X obj 148 437 bng 15 250 50 0 empty empty empty 17 7 0 10 #fcfcfc
#000000 #000000 1;
#X obj 82 401 bng 15 250 50 0 empty empty empty 17 7 0 10 #fcfcfc #000000
#000000 1;
#X msg 204 464 250;
#X obj 169 437 bng 15 250 50 0 empty empty empty 17 7 0 10 #fcfcfc
#000000 #000000 1;
#X msg 236 463 125;
#X obj 132 349 random 6;
#X obj 105 408 sel 0 1 2 3 4 5;
#X obj 154 563 + 250;
#X obj 189 437 bng 15 250 50 0 empty empty empty 17 7 0 10 #fcfcfc
#000000 #000000 1;
#X floatatom 908 371 5 0 0 0 - - - 0 0 1, f 5;
#X msg 925 457 1000;
#X msg 971 457 500;
#X msg 884 457 2000;
#X obj 907 430 bng 15 250 50 0 empty empty empty 17 7 0 10 #fcfcfc
#000000 #000000 1;
#X obj 927 430 bng 15 250 50 0 empty empty empty 17 7 0 10 #fcfcfc
#000000 #000000 1;
#X obj 950 430 bng 15 250 50 0 empty empty empty 17 7 0 10 #fcfcfc
#000000 #000000 1;
#X obj 880 392 bng 15 250 50 0 empty empty empty 17 7 0 10 #fcfcfc
#000000 #000000 1;
#X obj 971 430 bng 15 250 50 0 empty empty empty 17 7 0 10 #fcfcfc
#000000 #000000 1;
#X obj 958 349 random 6;
#X obj 907 401 sel 0 1 2 3 4 5;
#X obj 991 430 bng 15 250 50 0 empty empty empty 17 7 0 10 #fcfcfc
#000000 #000000 1;
#X obj 957 501 random 9000;
#X floatatom 1146 372 5 0 0 0 - - - 0 0 1, f 5;
#X msg 1123 456 2000;
#X obj 1146 429 bng 15 250 50 0 empty empty empty 17 7 0 10 #fcfcfc
#000000 #000000 1;
#X obj 1166 429 bng 15 250 50 0 empty empty empty 17 7 0 10 #fcfcfc
#000000 #000000 1;
#X obj 1189 429 bng 15 250 50 0 empty empty empty 17 7 0 10 #fcfcfc
#000000 #000000 1;
#X obj 1119 391 bng 15 250 50 0 empty empty empty 17 7 0 10 #fcfcfc
#000000 #000000 1;
#X obj 1210 429 bng 15 250 50 0 empty empty empty 17 7 0 10 #fcfcfc
#000000 #000000 1;
#X obj 1146 343 random 6;
#X obj 1146 400 sel 0 1 2 3 4 5;
#X obj 1230 429 bng 15 250 50 0 empty empty empty 17 7 0 10 #fcfcfc
#000000 #000000 1;
#X floatatom 1366 375 5 0 0 0 - - - 0 0 1, f 5;
#X msg 1384 459 1000;
#X msg 1343 459 2000;
#X obj 1366 432 bng 15 250 50 0 empty empty empty 17 7 0 10 #fcfcfc
#000000 #000000 1;
#X obj 1386 432 bng 15 250 50 0 empty empty empty 17 7 0 10 #fcfcfc
#000000 #000000 1;
#X obj 1409 432 bng 15 250 50 0 empty empty empty 17 7 0 10 #fcfcfc
#000000 #000000 1;
#X obj 1430 432 bng 15 250 50 0 empty empty empty 17 7 0 10 #fcfcfc
#000000 #000000 1;
#X obj 1366 346 random 6;
#X obj 1366 403 sel 0 1 2 3 4 5;
#X obj 1450 432 bng 15 250 50 0 empty empty empty 17 7 0 10 #fcfcfc
#000000 #000000 1;
#X floatatom 1588 373 5 0 0 0 - - - 0 0 1, f 5;
#X obj 1588 430 bng 15 250 50 0 empty empty empty 17 7 0 10 #fcfcfc
#000000 #000000 1;
#X obj 1608 430 bng 15 250 50 0 empty empty empty 17 7 0 10 #fcfcfc
#000000 #000000 1;
#X obj 1631 430 bng 15 250 50 0 empty empty empty 17 7 0 10 #fcfcfc
#000000 #000000 1;
#X obj 1563 412 bng 15 250 50 0 empty empty empty 17 7 0 10 #fcfcfc
#000000 #000000 1;
#X obj 1652 430 bng 15 250 50 0 empty empty empty 17 7 0 10 #fcfcfc
#000000 #000000 1;
#X obj 1588 344 random 6;
#X obj 1588 401 sel 0 1 2 3 4 5;
#X obj 1672 430 bng 15 250 50 0 empty empty empty 17 7 0 10 #fcfcfc
#000000 #000000 1;
#X obj 1636 501 random 9000;
#X floatatom 1859 393 5 0 0 0 - - - 0 0 1, f 5;
#X obj 1859 450 bng 15 250 50 0 empty empty empty 17 7 0 10 #fcfcfc
#000000 #000000 1;
#X obj 1879 450 bng 15 250 50 0 empty empty empty 17 7 0 10 #fcfcfc
#000000 #000000 1;
#X obj 1902 450 bng 15 250 50 0 empty empty empty 17 7 0 10 #fcfcfc
#000000 #000000 1;
#X obj 1832 412 bng 15 250 50 0 empty empty empty 17 7 0 10 #fcfcfc
#000000 #000000 1;
#X obj 1923 450 bng 15 250 50 0 empty empty empty 17 7 0 10 #fcfcfc
#000000 #000000 1;
#X obj 1859 364 random 6;
#X obj 1859 421 sel 0 1 2 3 4 5;
#X obj 1943 450 bng 15 250 50 0 empty empty empty 17 7 0 10 #fcfcfc
#000000 #000000 1;
#X obj 1347 413 bng 15 250 50 0 empty empty empty 17 7 0 10 #fcfcfc
#000000 #000000 1;
#X msg 145 656 0.1;
#X obj 373 663 *~ 1;
#X obj 332 729 hip~ 150;
#X obj 332 758 hip~ 150;
#X obj 332 787 hip~ 150;
#X obj 1637 556 + 2000;
#X obj 1908 576 + 2000;
#X obj 1907 521 random 15000;
#X obj 1907 550 / 1500;
#X msg 530 1525 1 100;
#X msg 605 1538 0 100;
#X msg 218 1528 1 100;
#X msg 292 1541 0 100;
#X msg 819 1532 1 100;
#X msg 893 1544 0 100;
#X obj 418 1659 *~ 0.5;
#X text 1403 713 Time;
#X obj 1140 1024 *~;
#X obj 1269 1024 *~;
#X obj 1368 733 vsl 33 113 0 1 0 0 empty empty empty 0 -9 0 10 #fcfcfc
#000000 #000000 8982 1 0 1;
#X obj 1447 733 vsl 33 113 0 1 0 0 empty empty empty 0 -9 0 10 #fcfcfc
#000000 #000000 8512 1 0 1;
#X text 1365 713 Vol;
#X text 1447 713 FB;
#X obj 1355 928 line~;
#X obj 1475 923 line~;
#X floatatom 1446 854 5 0 0 0 - - - 0 0 1, f 5;
#X obj 1126 908 delwrite~ del 1000;
#X text 1259 1048 Feedback;
#X obj 1408 733 vsl 32 113 10 1000 0 0 empty empty empty 0 -9 0 10
#fcfcfc #000000 #000000 417 1 0 1;
#X floatatom 1407 852 5 0 0 0 - - - 0 0 1, f 5;
#X floatatom 1368 852 5 0 0 0 - - - 0 0 1, f 5;
#X obj 877 641 tgl 16 0 empty empty empty 17 7 0 10 #fcfcfc #000000
#000000 1 1 1;
#X floatatom 877 756 5 0 0 0 - - - 0 0 1, f 5;
#X obj 990 647 tgl 16 0 empty empty empty 17 7 0 10 #fcfcfc #000000
#000000 1 1 1;
#X obj 986 730 / 1000;
#X obj 986 701 random 1000;
#X floatatom 1084 795 5 0 0 0 - - - 0 0 1, f 5;
#X obj 873 666 metro 55000;
#X obj 986 672 metro 30000;
#X msg 1475 897 \$1 5000;
#X obj 1094 646 tgl 16 0 empty empty empty 17 7 0 10 #fcfcfc #000000
#000000 1 1 1;
#X obj 1090 729 / 1000;
#X obj 1090 700 random 1000;
#X obj 1090 671 metro 30000;
#X msg 1355 902 \$1 5000;
#X obj 873 695 random 200000;
#X obj 1144 652 bng 15 250 50 0 empty empty empty 17 7 0 10 #fcfcfc
#000000 #000000 1;
#X obj 873 724 / 1000;
#X obj 1128 971 delread~ del 10;
#X obj 1090 758 - 0.2;
#X msg 1430 459 2000;
#X msg 1497 458 1000;
#X obj 829 665 bng 15 250 50 0 empty empty empty 17 7 0 10 #fcfcfc
#000000 #000000 1;
#X obj 759 770 + 0.2;
#X obj 837 787 vsl 15 128 0 1 0 0 empty empty empty 0 -9 0 10 #fcfcfc
#000000 #000000 3835 1 0 1;
#X floatatom 837 929 5 0 0 0 - - - 0 0 1, f 5;
#X msg 1465 459 4000;
#X msg 1612 460 1000;
#X msg 1571 460 2000;
#X msg 1658 460 2000;
#X msg 1725 460 1000;
#X msg 1693 460 4000;
#X msg 1868 477 1000;
#X msg 1827 477 2000;
#X msg 1914 477 2000;
#X msg 1981 476 1000;
#X msg 1949 477 4000;
#X msg 1164 456 2000;
#X msg 1245 456 1250;
#X msg 1277 455 1250;
#X msg 1210 456 1000;
#X msg 1038 456 1250;
#X msg 1006 457 1250;
#X msg 755 464 1250;
#X msg 787 464 1250;
#X msg 720 464 2000;
#X obj 705 563 + 1250;
#X obj 1308 1591 hip~ 150;
#X obj 1308 1620 hip~ 150;
#X obj 1308 1649 hip~ 150;
#X obj 1240 1660 *~ 0.7;
#X obj 986 759 + 0.4;
#X floatatom 986 788 5 0 0 0 - - - 0 0 1, f 5;
#X obj 1033 652 bng 15 250 50 0 empty empty empty 17 7 0 10 #fcfcfc
#000000 #000000 1;
#X obj 308 660 *~ 0.7;
#X obj 594 7 tgl 15 0 empty empty empty 17 7 0 10 #fcfcfc #000000 #000000
0 1 1;
#X floatatom 521 89 5 0 0 0 - - - 0 0 1, f 5;
#X obj 595 31 metro 30000;
#X obj 594 60 random 10;
#X obj 592 85 sel 0 1 2 3 4 5 6 7 8 9;
#X obj 1019 37 random 2;
#X obj 1019 66 sel 0 1;
#X floatatom 717 24 5 0 0 0 - - - 0 0 1, f 5;
#X obj 955 557 + 1000;
#X obj 1195 555 + 1000;
#X obj 1415 558 + 250;
#X obj 153 509 random 15000;
#X obj 434 509 random 20000;
#X obj 704 508 random 19000;
#X obj 704 537 / 200;
#X obj 434 537 / 500;
#X obj 153 537 / 500;
#X obj 959 532 / 300;
#X obj 1194 500 random 15000;
#X obj 1193 529 / 500;
#X obj 1414 503 random 19000;
#X obj 1414 532 / 100;
#X obj 1636 530 / 100;
#X connect 0 0 1 0;
#X connect 1 0 9 0;
#X connect 2 0 3 0;
#X connect 2 0 417 0;
#X connect 3 0 7 0;
#X connect 4 0 116 0;
#X connect 4 0 117 0;
#X connect 4 0 119 0;
#X connect 4 0 120 0;
#X connect 4 0 121 0;
#X connect 4 0 118 0;
#X connect 4 0 122 0;
#X connect 4 0 220 0;
#X connect 5 0 125 0;
#X connect 6 0 126 0;
#X connect 7 0 10 0;
#X connect 7 1 6 0;
#X connect 8 0 6 0;
#X connect 9 0 3 1;
#X connect 10 0 8 0;
#X connect 11 0 12 0;
#X connect 11 0 87 0;
#X connect 12 0 13 0;
#X connect 13 0 129 0;
#X connect 14 0 15 0;
#X connect 15 0 24 0;
#X connect 16 0 17 0;
#X connect 16 0 418 0;
#X connect 17 0 20 0;
#X connect 17 0 23 0;
#X connect 18 0 127 0;
#X connect 19 0 128 0;
#X connect 20 0 22 0;
#X connect 20 1 19 0;
#X connect 21 0 19 0;
#X connect 22 0 21 0;
#X connect 24 0 17 1;
#X connect 25 0 26 0;
#X connect 26 0 41 0;
#X connect 27 0 28 0;
#X connect 27 0 419 0;
#X connect 28 0 31 0;
#X connect 28 0 40 0;
#X connect 29 0 132 0;
#X connect 30 0 133 0;
#X connect 31 0 33 0;
#X connect 31 1 30 0;
#X connect 32 0 30 0;
#X connect 33 0 32 0;
#X connect 34 0 149 0;
#X connect 34 0 236 0;
#X connect 35 0 32 1;
#X connect 36 0 32 1;
#X connect 37 0 36 0;
#X connect 38 0 35 0;
#X connect 39 0 396 0;
#X connect 41 0 28 1;
#X connect 42 0 43 0;
#X connect 43 0 52 0;
#X connect 44 0 45 0;
#X connect 44 0 280 0;
#X connect 45 0 48 0;
#X connect 45 0 51 0;
#X connect 46 0 135 0;
#X connect 47 0 136 0;
#X connect 48 0 50 0;
#X connect 48 1 47 0;
#X connect 49 0 47 0;
#X connect 50 0 49 0;
#X connect 52 0 45 1;
#X connect 53 0 54 0;
#X connect 54 0 63 0;
#X connect 55 0 56 0;
#X connect 55 0 424 0;
#X connect 56 0 59 0;
#X connect 56 0 62 0;
#X connect 57 0 138 0;
#X connect 58 0 139 0;
#X connect 59 0 61 0;
#X connect 59 1 58 0;
#X connect 60 0 58 0;
#X connect 61 0 60 0;
#X connect 63 0 56 1;
#X connect 64 0 65 0;
#X connect 65 0 74 0;
#X connect 66 0 67 0;
#X connect 66 0 426 0;
#X connect 67 0 70 0;
#X connect 67 0 73 0;
#X connect 68 0 141 0;
#X connect 69 0 142 0;
#X connect 70 0 72 0;
#X connect 70 1 69 0;
#X connect 71 0 69 0;
#X connect 72 0 71 0;
#X connect 74 0 67 1;
#X connect 75 0 76 0;
#X connect 76 0 85 0;
#X connect 77 0 78 0;
#X connect 77 0 310 0;
#X connect 78 0 81 0;
#X connect 78 0 84 0;
#X connect 79 0 144 0;
#X connect 80 0 145 0;
#X connect 81 0 83 0;
#X connect 81 1 80 0;
#X connect 82 0 80 0;
#X connect 83 0 82 0;
#X connect 85 0 78 1;
#X connect 86 0 13 1;
#X connect 87 0 86 0;
#X connect 87 0 332 0;
#X connect 87 0 90 0;
#X connect 88 0 89 1;
#X connect 89 0 336 0;
#X connect 90 0 333 0;
#X connect 91 0 90 1;
#X connect 92 0 11 0;
#X connect 93 0 91 0;
#X connect 94 0 95 0;
#X connect 94 0 98 0;
#X connect 95 0 96 0;
#X connect 96 0 130 0;
#X connect 97 0 96 1;
#X connect 98 0 97 0;
#X connect 98 0 330 0;
#X connect 98 0 101 0;
#X connect 99 0 100 1;
#X connect 100 0 336 0;
#X connect 101 0 331 0;
#X connect 102 0 101 1;
#X connect 103 0 104 0;
#X connect 103 0 107 0;
#X connect 104 0 105 0;
#X connect 105 0 146 0;
#X connect 106 0 105 1;
#X connect 107 0 106 0;
#X connect 107 0 334 0;
#X connect 107 0 110 0;
#X connect 108 0 109 1;
#X connect 109 0 336 0;
#X connect 110 0 335 0;
#X connect 111 0 110 1;
#X connect 112 0 94 0;
#X connect 113 0 103 0;
#X connect 114 0 102 0;
#X connect 115 0 111 0;
#X connect 116 0 5 0;
#X connect 117 0 18 0;
#X connect 118 0 68 0;
#X connect 119 0 29 0;
#X connect 120 0 46 0;
#X connect 121 0 57 0;
#X connect 122 0 79 0;
#X connect 125 0 0 0;
#X connect 125 0 2 0;
#X connect 126 0 405 0;
#X connect 127 0 14 0;
#X connect 127 0 16 0;
#X connect 128 0 405 0;
#X connect 129 0 89 0;
#X connect 130 0 100 0;
#X connect 132 0 25 0;
#X connect 132 0 27 0;
#X connect 133 0 405 0;
#X connect 135 0 42 0;
#X connect 135 0 44 0;
#X connect 136 0 405 0;
#X connect 138 0 53 0;
#X connect 138 0 55 0;
#X connect 139 0 405 0;
#X connect 141 0 64 0;
#X connect 141 0 66 0;
#X connect 142 0 405 0;
#X connect 144 0 75 0;
#X connect 144 0 77 0;
#X connect 145 0 405 0;
#X connect 146 0 109 0;
#X connect 147 0 148 0;
#X connect 148 0 91 0;
#X connect 148 0 102 0;
#X connect 148 0 111 0;
#X connect 149 0 32 0;
#X connect 150 0 151 0;
#X connect 151 0 155 0;
#X connect 151 0 169 0;
#X connect 152 0 160 0;
#X connect 152 1 153 1;
#X connect 152 2 162 0;
#X connect 153 0 154 0;
#X connect 154 0 161 0;
#X connect 154 1 156 0;
#X connect 154 2 159 0;
#X connect 155 0 157 1;
#X connect 155 0 151 1;
#X connect 155 0 165 0;
#X connect 156 0 157 0;
#X connect 157 0 159 0;
#X connect 158 0 164 1;
#X connect 159 0 167 0;
#X connect 160 0 153 0;
#X connect 161 0 158 0;
#X connect 162 0 158 0;
#X connect 163 0 155 1;
#X connect 164 0 170 0;
#X connect 165 0 156 1;
#X connect 166 0 152 0;
#X connect 167 0 164 0;
#X connect 168 0 167 0;
#X connect 169 0 152 0;
#X connect 170 0 398 0;
#X connect 171 0 170 1;
#X connect 172 0 226 0;
#X connect 173 0 227 0;
#X connect 174 0 197 0;
#X connect 175 0 168 0;
#X connect 176 0 183 0;
#X connect 177 0 184 0;
#X connect 178 0 189 0;
#X connect 178 0 191 0;
#X connect 178 0 196 0;
#X connect 179 0 185 0;
#X connect 180 0 186 0;
#X connect 181 0 187 0;
#X connect 182 0 188 0;
#X connect 183 0 167 0;
#X connect 184 0 167 0;
#X connect 185 0 167 0;
#X connect 186 0 167 0;
#X connect 187 0 167 0;
#X connect 188 0 167 0;
#X connect 189 0 223 0;
#X connect 190 0 192 0;
#X connect 191 0 190 0;
#X connect 192 0 193 0;
#X connect 192 1 194 0;
#X connect 192 2 195 0;
#X connect 193 0 165 1;
#X connect 194 0 165 1;
#X connect 195 0 165 1;
#X connect 196 0 174 0;
#X connect 197 0 175 0;
#X connect 197 1 176 0;
#X connect 197 2 177 0;
#X connect 197 3 179 0;
#X connect 197 4 180 0;
#X connect 197 5 181 0;
#X connect 197 6 182 0;
#X connect 198 0 2 0;
#X connect 199 0 16 0;
#X connect 200 0 27 0;
#X connect 201 0 44 0;
#X connect 202 0 55 0;
#X connect 203 0 66 0;
#X connect 204 0 77 0;
#X connect 205 0 206 0;
#X connect 206 0 215 0;
#X connect 207 0 208 0;
#X connect 207 0 317 0;
#X connect 208 0 211 0;
#X connect 208 0 214 0;
#X connect 209 0 217 0;
#X connect 210 0 218 0;
#X connect 211 0 213 0;
#X connect 211 1 210 0;
#X connect 212 0 210 0;
#X connect 213 0 212 0;
#X connect 215 0 208 1;
#X connect 217 0 205 0;
#X connect 217 0 207 0;
#X connect 218 0 322 0;
#X connect 219 0 207 0;
#X connect 220 0 209 0;
#X connect 221 0 150 0;
#X connect 222 0 150 0;
#X connect 223 0 163 0;
#X connect 224 0 225 0;
#X connect 224 0 225 1;
#X connect 226 0 171 0;
#X connect 226 0 178 0;
#X connect 226 0 221 0;
#X connect 227 0 171 0;
#X connect 227 0 222 0;
#X connect 228 0 229 0;
#X connect 229 0 230 0;
#X connect 230 0 231 0;
#X connect 231 0 374 0;
#X connect 232 0 224 1;
#X connect 233 0 228 0;
#X connect 233 0 352 0;
#X connect 233 0 354 0;
#X connect 233 0 361 0;
#X connect 234 0 394 0;
#X connect 235 0 34 0;
#X connect 236 0 37 0;
#X connect 236 1 38 0;
#X connect 236 2 39 0;
#X connect 236 3 234 0;
#X connect 236 4 395 0;
#X connect 236 5 237 0;
#X connect 237 0 419 0;
#X connect 238 0 245 0;
#X connect 238 0 250 0;
#X connect 239 0 21 1;
#X connect 240 0 21 1;
#X connect 241 0 21 1;
#X connect 242 0 241 0;
#X connect 243 0 239 0;
#X connect 244 0 240 0;
#X connect 245 0 21 0;
#X connect 246 0 21 1;
#X connect 247 0 246 0;
#X connect 248 0 21 1;
#X connect 249 0 238 0;
#X connect 250 0 242 0;
#X connect 250 1 243 0;
#X connect 250 2 244 0;
#X connect 250 3 247 0;
#X connect 250 4 248 0;
#X connect 250 5 252 0;
#X connect 251 0 21 1;
#X connect 252 0 418 0;
#X connect 253 0 260 0;
#X connect 253 0 265 0;
#X connect 254 0 8 1;
#X connect 255 0 8 1;
#X connect 256 0 8 1;
#X connect 257 0 256 0;
#X connect 258 0 254 0;
#X connect 259 0 255 0;
#X connect 260 0 10 0;
#X connect 261 0 8 1;
#X connect 262 0 261 0;
#X connect 263 0 8 1;
#X connect 264 0 253 0;
#X connect 265 0 257 0;
#X connect 265 1 258 0;
#X connect 265 2 259 0;
#X connect 265 3 262 0;
#X connect 265 4 263 0;
#X connect 265 5 267 0;
#X connect 266 0 8 1;
#X connect 267 0 417 0;
#X connect 268 0 275 0;
#X connect 268 0 278 0;
#X connect 269 0 49 1;
#X connect 270 0 49 1;
#X connect 271 0 49 1;
#X connect 272 0 271 0;
#X connect 273 0 269 0;
#X connect 274 0 270 0;
#X connect 275 0 49 0;
#X connect 276 0 393 0;
#X connect 277 0 268 0;
#X connect 278 0 272 0;
#X connect 278 1 273 0;
#X connect 278 2 274 0;
#X connect 278 3 276 0;
#X connect 278 4 392 0;
#X connect 278 5 279 0;
#X connect 279 0 280 0;
#X connect 280 0 423 0;
#X connect 281 0 286 0;
#X connect 281 0 289 0;
#X connect 282 0 60 1;
#X connect 283 0 282 0;
#X connect 284 0 388 0;
#X connect 285 0 391 0;
#X connect 286 0 60 0;
#X connect 287 0 389 0;
#X connect 288 0 281 0;
#X connect 289 0 283 0;
#X connect 289 1 284 0;
#X connect 289 2 285 0;
#X connect 289 3 287 0;
#X connect 289 4 390 0;
#X connect 289 5 290 0;
#X connect 290 0 424 0;
#X connect 291 0 299 0;
#X connect 291 0 320 0;
#X connect 292 0 71 1;
#X connect 293 0 71 1;
#X connect 294 0 293 0;
#X connect 295 0 292 0;
#X connect 296 0 371 0;
#X connect 297 0 377 0;
#X connect 298 0 291 0;
#X connect 299 0 294 0;
#X connect 299 1 295 0;
#X connect 299 2 296 0;
#X connect 299 3 297 0;
#X connect 299 4 372 0;
#X connect 299 5 300 0;
#X connect 300 0 426 0;
#X connect 301 0 308 0;
#X connect 301 0 305 0;
#X connect 302 0 379 0;
#X connect 303 0 378 0;
#X connect 304 0 380 0;
#X connect 305 0 82 0;
#X connect 306 0 382 0;
#X connect 307 0 301 0;
#X connect 308 0 302 0;
#X connect 308 1 303 0;
#X connect 308 2 304 0;
#X connect 308 3 306 0;
#X connect 308 4 381 0;
#X connect 308 5 309 0;
#X connect 309 0 310 0;
#X connect 310 0 428 0;
#X connect 311 0 315 0;
#X connect 311 0 318 0;
#X connect 312 0 384 0;
#X connect 313 0 383 0;
#X connect 314 0 385 0;
#X connect 315 0 212 0;
#X connect 316 0 387 0;
#X connect 317 0 311 0;
#X connect 318 0 312 0;
#X connect 318 1 313 0;
#X connect 318 2 314 0;
#X connect 318 3 316 0;
#X connect 318 4 386 0;
#X connect 318 5 319 0;
#X connect 319 0 328 0;
#X connect 320 0 71 0;
#X connect 321 0 6 0;
#X connect 321 0 19 0;
#X connect 321 0 30 0;
#X connect 321 0 47 0;
#X connect 321 0 58 0;
#X connect 321 0 69 0;
#X connect 321 0 80 0;
#X connect 321 0 210 0;
#X connect 322 0 323 0;
#X connect 322 0 347 0;
#X connect 323 0 324 0;
#X connect 324 0 325 0;
#X connect 325 0 224 0;
#X connect 325 0 347 0;
#X connect 326 0 82 1;
#X connect 327 0 212 1;
#X connect 328 0 329 0;
#X connect 329 0 327 0;
#X connect 330 0 99 0;
#X connect 331 0 99 0;
#X connect 332 0 88 0;
#X connect 333 0 88 0;
#X connect 334 0 108 0;
#X connect 335 0 108 0;
#X connect 336 0 224 0;
#X connect 336 0 347 0;
#X connect 338 0 224 0;
#X connect 339 0 347 0;
#X connect 340 0 351 0;
#X connect 341 0 346 0;
#X connect 344 0 338 1;
#X connect 345 0 339 1;
#X connect 346 0 360 0;
#X connect 349 0 350 0;
#X connect 350 0 369 0;
#X connect 351 0 365 0;
#X connect 352 0 358 0;
#X connect 353 0 349 0;
#X connect 354 0 359 0;
#X connect 355 0 402 0;
#X connect 356 0 355 0;
#X connect 357 0 341 0;
#X connect 358 0 366 0;
#X connect 359 0 356 0;
#X connect 360 0 345 0;
#X connect 361 0 364 0;
#X connect 362 0 370 0;
#X connect 363 0 362 0;
#X connect 364 0 363 0;
#X connect 365 0 344 0;
#X connect 366 0 368 0;
#X connect 367 0 363 0;
#X connect 368 0 353 0;
#X connect 369 0 338 0;
#X connect 369 0 339 0;
#X connect 370 0 357 0;
#X connect 371 0 71 1;
#X connect 372 0 71 1;
#X connect 373 0 230 0;
#X connect 374 0 375 0;
#X connect 375 0 376 0;
#X connect 375 0 232 0;
#X connect 377 0 71 1;
#X connect 378 0 82 1;
#X connect 379 0 82 1;
#X connect 380 0 82 1;
#X connect 381 0 82 1;
#X connect 382 0 82 1;
#X connect 383 0 212 1;
#X connect 384 0 212 1;
#X connect 385 0 212 1;
#X connect 386 0 212 1;
#X connect 387 0 212 1;
#X connect 388 0 60 1;
#X connect 389 0 60 1;
#X connect 390 0 60 1;
#X connect 391 0 60 1;
#X connect 392 0 49 1;
#X connect 393 0 49 1;
#X connect 394 0 32 1;
#X connect 395 0 32 1;
#X connect 396 0 32 1;
#X connect 397 0 32 1;
#X connect 398 0 399 0;
#X connect 399 0 400 0;
#X connect 400 0 401 0;
#X connect 401 0 224 0;
#X connect 401 0 347 0;
#X connect 402 0 403 0;
#X connect 403 0 340 0;
#X connect 404 0 356 0;
#X connect 405 0 323 0;
#X connect 406 0 408 0;
#X connect 408 0 409 0;
#X connect 409 0 407 0;
#X connect 409 0 410 0;
#X connect 410 0 2 0;
#X connect 410 1 16 0;
#X connect 410 2 27 0;
#X connect 410 3 44 0;
#X connect 410 4 55 0;
#X connect 410 5 66 0;
#X connect 410 6 77 0;
#X connect 410 7 207 0;
#X connect 410 9 411 0;
#X connect 411 0 412 0;
#X connect 413 0 408 1;
#X connect 414 0 49 1;
#X connect 415 0 60 1;
#X connect 416 0 71 1;
#X connect 417 0 422 0;
#X connect 418 0 421 0;
#X connect 419 0 420 0;
#X connect 420 0 397 0;
#X connect 421 0 251 0;
#X connect 422 0 266 0;
#X connect 423 0 414 0;
#X connect 424 0 425 0;
#X connect 425 0 415 0;
#X connect 426 0 427 0;
#X connect 427 0 416 0;
#X connect 428 0 326 0;
