#N canvas 0 25 1792 996 12;
#X obj 31 287 soundfiler;
#X floatatom 31 316 13 0 0 0 - - - 0 0 1, f 13;
#X obj 183 274 bng 41 250 50 0 empty empty empty 17 7 0 10 #fcfcfc
#000000 #000000 1;
#X obj 30 387 random;
#X obj 221 78 loadbang;
#X obj 24 223 pack s \$0;
#X obj 17 555 line~;
#X obj 28 419 t f f;
#X obj 34 518 pack f f;
#X obj 31 344 - 44100;
#X obj 34 489 + 44100;
#X floatatom 43 960 5 0 0 0 - - - 0 0 1, f 5;
#X obj 64 1035 phasor~;
#X obj 64 1064 *~;
#X obj 270 285 soundfiler;
#X floatatom 270 314 13 0 0 0 - - - 0 0 1, f 13;
#X obj 422 272 bng 41 250 50 0 empty empty empty 17 7 0 10 #fcfcfc
#000000 #000000 1;
#X obj 269 385 random;
#X obj 263 221 pack s \$0;
#X obj 290 552 line~;
#X obj 267 445 t f f;
#X obj 273 516 pack f f;
#X obj 273 487 + 44100;
#X floatatom 269 414 5 0 0 0 - - - 0 0 1, f 5;
#X obj 270 342 - 22000;
#X obj 559 280 soundfiler;
#X floatatom 559 309 13 0 0 0 - - - 0 0 1, f 13;
#X obj 711 267 bng 41 250 50 0 empty empty empty 17 7 0 10 #fcfcfc
#000000 #000000 1;
#X obj 558 380 random;
#X obj 552 216 pack s \$0;
#X obj 568 579 line~;
#X obj 556 440 t f f;
#X obj 562 542 pack f f;
#X obj 562 482 + 44100;
#X floatatom 656 380 5 0 0 0 - - - 0 0 1, f 5;
#X msg 674 464 1000;
#X msg 633 464 2000;
#X obj 656 437 bng 15 250 50 0 empty empty empty 17 7 0 10 #fcfcfc
#000000 #000000 1;
#X obj 676 437 bng 15 250 50 0 empty empty empty 17 7 0 10 #fcfcfc
#000000 #000000 1;
#X obj 699 437 bng 15 250 50 0 empty empty empty 17 7 0 10 #fcfcfc
#000000 #000000 1;
#X floatatom 558 409 5 0 0 0 - - - 0 0 1, f 5;
#X obj 559 337 - 22000;
#X obj 828 283 soundfiler;
#X floatatom 828 312 13 0 0 0 - - - 0 0 1, f 13;
#X obj 980 270 bng 41 250 50 0 empty empty empty 17 7 0 10 #fcfcfc
#000000 #000000 1;
#X obj 827 383 random;
#X obj 821 219 pack s \$0;
#X obj 814 551 line~;
#X obj 825 443 t f f;
#X obj 831 514 pack f f;
#X obj 831 485 + 44100;
#X floatatom 827 412 5 0 0 0 - - - 0 0 1, f 5;
#X obj 828 340 - 22000;
#X obj 1071 284 soundfiler;
#X floatatom 1071 313 13 0 0 0 - - - 0 0 1, f 13;
#X obj 1223 271 bng 41 250 50 0 empty empty empty 17 7 0 10 #fcfcfc
#000000 #000000 1;
#X obj 1070 384 random;
#X obj 1064 220 pack s \$0;
#X obj 1057 552 line~;
#X obj 1068 444 t f f;
#X obj 1074 515 pack f f;
#X obj 1074 486 + 44100;
#X floatatom 1070 413 5 0 0 0 - - - 0 0 1, f 5;
#X obj 1071 341 - 22000;
#X obj 1303 285 soundfiler;
#X floatatom 1303 314 13 0 0 0 - - - 0 0 1, f 13;
#X obj 1448 273 bng 41 250 50 0 empty empty empty 17 7 0 10 #fcfcfc
#000000 #000000 1;
#X obj 1302 385 random;
#X obj 1296 221 pack s \$0;
#X obj 1289 553 line~;
#X obj 1300 445 t f f;
#X obj 1306 516 pack f f;
#X obj 1306 487 + 44100;
#X floatatom 1302 414 5 0 0 0 - - - 0 0 1, f 5;
#X obj 1303 342 - 22000;
#X obj 1524 286 soundfiler;
#X floatatom 1524 315 13 0 0 0 - - - 0 0 1, f 13;
#X obj 1676 273 bng 41 250 50 0 empty empty empty 17 7 0 10 #fcfcfc
#000000 #000000 1;
#X obj 1523 386 random;
#X obj 1517 222 pack s \$0;
#X obj 1510 554 line~;
#X obj 1521 446 t f f;
#X obj 1527 517 pack f f;
#X obj 1527 488 + 44100;
#X floatatom 1523 415 5 0 0 0 - - - 0 0 1, f 5;
#X obj 1524 343 - 22000;
#X msg 171 1025 44100;
#X obj 101 987 bng 36 250 50 0 empty empty empty 17 7 0 10 #fcfcfc
#000000 #000000 1;
#X obj 159 1153 line~;
#X obj 64 1190 *~;
#X obj 233 1108 delay;
#X floatatom 265 1079 5 0 0 0 - - - 0 0 1, f 5;
#X obj 38 911 r fastuno;
#X obj 265 1039 r duruno;
#X floatatom 355 957 14 0 0 0 - - - 0 0 1, f 14;
#X obj 376 1032 phasor~;
#X obj 376 1061 *~;
#X msg 483 1022 44100;
#X obj 413 984 bng 36 250 50 0 empty empty empty 17 7 0 10 #fcfcfc
#000000 #000000 1;
#X obj 471 1150 line~;
#X obj 353 1190 *~;
#X obj 545 1105 delay;
#X floatatom 577 1076 5 0 0 0 - - - 0 0 1, f 5;
#X floatatom 644 964 5 0 0 0 - - - 0 0 1, f 5;
#X obj 665 1039 phasor~;
#X obj 665 1068 *~;
#X msg 772 1029 44100;
#X obj 702 991 bng 36 250 50 0 empty empty empty 17 7 0 10 #fcfcfc
#000000 #000000 1;
#X obj 760 1157 line~;
#X obj 642 1190 *~;
#X obj 834 1112 delay;
#X floatatom 866 1083 5 0 0 0 - - - 0 0 1, f 5;
#X obj 350 908 r fastdue;
#X obj 639 915 r fasttre;
#X obj 577 1036 r durdue;
#X obj 866 1043 r durtre;
#X obj 591 1809 phasor~ 220;
#X obj 470 1887 osc~ 220;
#X obj 386 1489 vsl 15 128 0 127 0 0 empty empty empty 0 -9 0 10 #fcfcfc
#000000 #000000 69 1 0 1;
#X obj 55 1622 vsl 15 128 0 127 0 0 empty empty empty 0 -9 0 10 #fcfcfc
#000000 #000000 66 1 0 1;
#X obj 221 1810 mtof;
#X obj 592 1777 mtof;
#X obj 610 1500 bng 15 250 50 0 empty empty empty 17 7 0 10 #fcfcfc
#000000 #000000 1;
#X obj 621 1340 tgl 15 0 empty empty empty 17 7 0 10 #fcfcfc #000000
#000000 1 1 1;
#X obj 663 1756 phasor~ 220;
#X obj 732 1672 mtof;
#X obj 58 1571 metro 5000;
#X obj 72 1537 tgl 15 0 empty empty empty 17 7 0 10 #fcfcfc #000000
#000000 1 1 1;
#X obj 324 1425 metro 5000;
#X obj 322 1369 tgl 15 0 empty empty empty 17 7 0 10 #fcfcfc #000000
#000000 1 1 1;
#X obj 791 1344 tgl 15 0 empty empty empty 17 7 0 10 #fcfcfc #000000
#000000 1 1 1;
#X obj 703 1559 sel 60;
#X obj 749 1559 sel 69;
#X obj 794 1560 sel 81;
#X obj 888 1560 sel 76;
#X obj 732 1587 bng 15 250 50 0 empty empty empty 17 7 0 10 #fcfcfc
#000000 #000000 1;
#X obj 764 1587 bng 15 250 50 0 empty empty empty 17 7 0 10 #fcfcfc
#000000 #000000 1;
#X obj 804 1587 bng 15 250 50 0 empty empty empty 17 7 0 10 #fcfcfc
#000000 #000000 1;
#X obj 855 1587 bng 15 250 50 0 empty empty empty 17 7 0 10 #fcfcfc
#000000 #000000 1;
#X obj 788 1518 i;
#X obj 771 1365 metro 250;
#X obj 121 1272 loadbang;
#X obj 759 1787 *~ 0.6;
#X obj 804 1639 + 12;
#X obj 840 1561 sel 73;
#X obj 832 1587 bng 15 250 50 0 empty empty empty 17 7 0 10 #fcfcfc
#000000 #000000 1;
#X obj 614 1464 metro;
#X obj 468 1338 tgl 15 0 empty empty empty 17 7 0 10 #fcfcfc #000000
#000000 1 1 1;
#X floatatom 669 1690 5 0 0 0 - - - 0 0 1, f 5;
#X obj 222 1833 phasor~ 392;
#X obj 140 1870 osc~ 392;
#X obj 758 1758 osc~ 392;
#X msg 732 1619 55;
#X msg 764 1619 62;
#X msg 804 1619 79;
#X msg 840 1640 79;
#X msg 873 1640 86;
#X msg 220 1789 43, f 2;
#X msg 600 1756 43;
#X obj 93 1605 random 4000;
#X obj 93 1686 + 0.4;
#X obj 93 1634 / 1000;
#X obj 93 1661 / 10;
#X obj 93 1744 line~;
#X obj 144 1934 *~;
#X obj 230 1910 *~;
#X obj 724 1862 *~;
#X obj 326 1482 / 1000;
#X obj 326 1509 / 10;
#X obj 326 1453 random 5000;
#X obj 328 1599 line~;
#X obj 472 1915 *~;
#X obj 595 1884 *~;
#X obj 326 1538 + 0.3;
#X obj 469 1390 random 2000;
#X floatatom 469 1448 5 0 0 0 - - - 0 0 1, f 5;
#X obj 778 1390 random 24;
#X obj 778 1419 + 59;
#X floatatom 778 1448 5 0 0 0 - - - 0 0 1, f 5;
#X obj 798 1679 s note;
#X obj 608 1545 s metrovar;
#X obj 372 2153 vcf~ 4;
#X obj 369 2062 *~ 0.7;
#X obj 510 2088 random 1000;
#X msg 510 2146 \$1 1000;
#X obj 510 2175 line~;
#X obj 511 2070 bng 15 250 50 0 empty empty empty 17 7 0 10 #fcfcfc
#000000 #000000 1;
#X obj 259 1337 delay 1000;
#X msg 93 1715 \$1 1000;
#X msg 328 1570 \$1 1000;
#X obj 468 1358 metro 6300;
#X obj 510 2117 + 100;
#X msg 21 196 ../samples/a.wav;
#X msg 261 194 ../samples/b.wav;
#X msg 1294 195 ../samples/f.wav;
#X msg 524 184 ../samples/c.wav;
#X msg 819 193 ../samples/d.wav;
#X msg 1062 194 ../samples/e.wav;
#X msg 1515 196 ../samples/g.wav;
#X obj 165 199 table uno;
#X obj 398 196 table due;
#X msg 30 253 read -resize \$1 uno;
#X obj 17 584 tabread4~ uno;
#X msg 270 251 read -resize \$1 due;
#X obj 256 582 tabread4~ due;
#X obj 64 1100 tabread4~ uno;
#X obj 376 1097 tabread4~ due;
#X obj 664 185 table tre;
#X msg 559 246 read -resize \$1 tre;
#X obj 546 608 tabread4~ tre;
#X obj 949 195 table quattro;
#X msg 828 249 read -resize \$1 quattro;
#X obj 815 580 tabread4~ quattro;
#X obj 1197 196 table cinque;
#X msg 1071 250 read -resize \$1 cinque;
#X obj 1059 581 tabread4~ cinque;
#X obj 1423 196 table sei;
#X msg 1302 251 read -resize \$1 sei;
#X obj 1290 582 tabread4~ sei;
#X obj 1654 207 table sette;
#X msg 1525 253 read -resize \$1 sette;
#X obj 1511 583 tabread4~ sette;
#X obj 665 1104 tabread4~ tre;
#X obj 220 909 loadbang;
#X msg 220 938 3000;
#X obj 629 399 bng 15 250 50 0 empty empty empty 17 7 0 10 #fcfcfc
#000000 #000000 1;
#X obj 469 1419 + 70;
#X obj 1043 1175 tgl 45 0 empty empty empty 17 7 0 10 #fcfcfc #000000
#000000 0 1 1;
#X obj 1043 1233 metro 1000;
#X obj 1043 1338 t b f b;
#X obj 1043 1384 i;
#X obj 1043 1406 t b f f;
#X obj 1127 1335 i;
#X obj 1146 1446 +, f 4;
#X obj 1146 1468 pack f f;
#X obj 1049 1518 line~;
#X obj 1145 1511 line~;
#X obj 1043 1362 delay 32;
#X msg 1032 1465 1 30;
#X msg 1075 1467 0 30;
#X floatatom 1142 1292 5 0 0 0 - - - 0 0 1, f 5;
#X obj 1148 1573 *~;
#X obj 1111 1375 * 44.1;
#X msg 1045 1304 10;
#X obj 1145 1534 tabread~ cinque;
#X msg 1369 1486 set uno;
#X obj 1043 1262 random 40000;
#X obj 1109 1611 *~;
#X obj 1206 1710 line~;
#X obj 1199 1583 r startvelox;
#X obj 1296 1583 r stopvelox;
#X floatatom 1391 1398 5 0 0 0 - - - 0 0 1, f 5;
#X obj 1391 1455 bng 15 250 50 0 empty empty empty 17 7 0 10 #fcfcfc
#000000 #000000 1;
#X obj 1410 1455 bng 15 250 50 0 empty empty empty 17 7 0 10 #fcfcfc
#000000 #000000 1;
#X obj 1429 1455 bng 15 250 50 0 empty empty empty 17 7 0 10 #fcfcfc
#000000 #000000 1;
#X obj 1270 1167 bng 66 250 50 0 empty empty empty 17 7 0 10 #fcfcfc
#000000 #000000 1;
#X obj 1448 1455 bng 15 250 50 0 empty empty empty 17 7 0 10 #fcfcfc
#000000 #000000 1;
#X obj 1467 1455 bng 15 250 50 0 empty empty empty 17 7 0 10 #fcfcfc
#000000 #000000 1;
#X obj 1486 1455 bng 15 250 50 0 empty empty empty 17 7 0 10 #fcfcfc
#000000 #000000 1;
#X obj 1505 1455 bng 15 250 50 0 empty empty empty 17 7 0 10 #fcfcfc
#000000 #000000 1;
#X msg 1428 1486 set due;
#X msg 1490 1486 set tre;
#X msg 1549 1486 set quattro;
#X msg 1431 1512 set cinque;
#X msg 1513 1512 set sei;
#X msg 1572 1512 set sette;
#X obj 1270 1242 random 25;
#X floatatom 1225 1328 5 0 0 0 - - - 0 0 1, f 5;
#X obj 1225 1299 random 3;
#X obj 1225 1357 sel 0 1 2;
#X msg 1218 1386 44.1;
#X msg 1261 1387 88.2;
#X msg 1302 1387 22.05;
#N canvas 0 25 1792 996 ramps 0;
#X obj 336 239 inlet;
#X obj 336 297 line~;
#X obj 336 326 outlet~;
#X msg 336 268 \$1 10000;
#X connect 0 0 3 0;
#X connect 1 0 2 0;
#X connect 3 0 1 0;
#X restore 929 2130 pd ramps;
#X obj 1141 1843 loadbang;
#X obj 1392 1369 random 7;
#X obj 1391 1427 sel 0 1 2 3 4 5 6;
#X obj 372 2182 *~;
#X obj 1139 1872 tgl 15 0 empty empty empty 17 7 0 10 #fcfcfc #000000
#000000 1 1 1;
#X obj 1139 1920 random 3;
#X floatatom 1139 1949 5 0 0 0 - - - 0 0 1, f 5;
#X obj 1139 1978 sel 0 1 2;
#X msg 1157 2007 1;
#X msg 1185 2008 1;
#X msg 1097 2051 0.05;
#X obj 1139 1891 metro 60000;
#X msg 1137 2053 0.2;
#X msg 1175 2056 0.2;
#X obj 184 153 r arch_details;
#X obj 428 154 r arch_views;
#X obj 667 154 r bestiary;
#X obj 974 155 r bodies;
#X obj 1202 154 r details;
#X obj 1455 155 r faces;
#X obj 1671 153 r surfaces;
#X obj 1764 296 soundfiler;
#X floatatom 1764 325 13 0 0 0 - - - 0 0 1, f 13;
#X obj 1916 283 bng 41 250 50 0 empty empty empty 17 7 0 10 #fcfcfc
#000000 #000000 1;
#X obj 1763 396 random;
#X obj 1757 232 pack s \$0;
#X obj 1750 564 line~;
#X obj 1761 456 t f f;
#X obj 1767 527 pack f f;
#X obj 1767 498 + 44100;
#X floatatom 1763 425 5 0 0 0 - - - 0 0 1, f 5;
#X obj 1764 353 - 22000;
#X obj 1894 217 table otto;
#X msg 1766 263 read -resize \$1 otto;
#X obj 1751 593 tabread4~ otto;
#X obj 1911 164 r views;
#X msg 1755 206 ../samples/h.wav;
#X msg 1205 1644 1;
#X msg 1279 1657 0;
#X obj 1270 1270 + 100;
#X obj 367 2229 dac~;
#X obj 569 826 *~, f 21;
#X obj 567 861 dac~;
#X msg 1205 1615 1 500;
#X msg 1279 1628 0 500;
#X obj 763 658 tgl 16 0 empty empty empty 17 7 0 10 #fcfcfc #000000
#000000 1 1 1;
#X obj 759 683 metro 60000;
#X obj 759 712 random 1000;
#X obj 759 741 / 1000;
#N canvas 0 25 1792 996 ramps 0;
#X obj 336 239 inlet;
#X obj 336 297 line~;
#X obj 336 326 outlet~;
#X msg 336 268 \$1 10000;
#X connect 0 0 3 0;
#X connect 1 0 2 0;
#X connect 3 0 1 0;
#X restore 756 814 pd ramps;
#X obj 762 632 loadbang;
#X msg 931 2015 0;
#X obj 720 437 bng 15 250 50 0 empty empty empty 17 7 0 10 #fcfcfc
#000000 #000000 1;
#X obj 656 351 random 6;
#X obj 656 408 sel 0 1 2 3 4 5;
#X obj 740 437 bng 15 250 50 0 empty empty empty 17 7 0 10 #fcfcfc
#000000 #000000 1;
#X obj 704 508 random 9000;
#X obj 704 537 / 900;
#X floatatom 386 381 5 0 0 0 - - - 0 0 1, f 5;
#X msg 404 465 1000;
#X msg 450 465 500;
#X msg 363 465 2000;
#X obj 386 438 bng 15 250 50 0 empty empty empty 17 7 0 10 #fcfcfc
#000000 #000000 1;
#X obj 406 438 bng 15 250 50 0 empty empty empty 17 7 0 10 #fcfcfc
#000000 #000000 1;
#X obj 429 438 bng 15 250 50 0 empty empty empty 17 7 0 10 #fcfcfc
#000000 #000000 1;
#X obj 359 400 bng 15 250 50 0 empty empty empty 17 7 0 10 #fcfcfc
#000000 #000000 1;
#X msg 485 465 250;
#X obj 450 438 bng 15 250 50 0 empty empty empty 17 7 0 10 #fcfcfc
#000000 #000000 1;
#X msg 517 464 125;
#X obj 386 352 random 6;
#X obj 386 409 sel 0 1 2 3 4 5;
#X obj 435 564 + 250;
#X obj 470 438 bng 15 250 50 0 empty empty empty 17 7 0 10 #fcfcfc
#000000 #000000 1;
#X obj 434 509 random 9000;
#X obj 434 538 / 900;
#X floatatom 105 380 5 0 0 0 - - - 0 0 1, f 5;
#X msg 123 464 1000;
#X msg 169 464 500;
#X msg 82 464 2000;
#X obj 105 437 bng 15 250 50 0 empty empty empty 17 7 0 10 #fcfcfc
#000000 #000000 1;
#X obj 125 437 bng 15 250 50 0 empty empty empty 17 7 0 10 #fcfcfc
#000000 #000000 1;
#X obj 148 437 bng 15 250 50 0 empty empty empty 17 7 0 10 #fcfcfc
#000000 #000000 1;
#X obj 82 401 bng 15 250 50 0 empty empty empty 17 7 0 10 #fcfcfc #000000
#000000 1;
#X msg 204 464 250;
#X obj 169 437 bng 15 250 50 0 empty empty empty 17 7 0 10 #fcfcfc
#000000 #000000 1;
#X msg 236 463 125;
#X obj 105 351 random 6;
#X obj 105 408 sel 0 1 2 3 4 5;
#X obj 154 563 + 250;
#X obj 189 437 bng 15 250 50 0 empty empty empty 17 7 0 10 #fcfcfc
#000000 #000000 1;
#X floatatom 907 373 5 0 0 0 - - - 0 0 1, f 5;
#X msg 925 457 1000;
#X msg 971 457 500;
#X msg 884 457 2000;
#X obj 907 430 bng 15 250 50 0 empty empty empty 17 7 0 10 #fcfcfc
#000000 #000000 1;
#X obj 927 430 bng 15 250 50 0 empty empty empty 17 7 0 10 #fcfcfc
#000000 #000000 1;
#X obj 950 430 bng 15 250 50 0 empty empty empty 17 7 0 10 #fcfcfc
#000000 #000000 1;
#X obj 880 392 bng 15 250 50 0 empty empty empty 17 7 0 10 #fcfcfc
#000000 #000000 1;
#X obj 971 430 bng 15 250 50 0 empty empty empty 17 7 0 10 #fcfcfc
#000000 #000000 1;
#X obj 907 344 random 6;
#X obj 907 401 sel 0 1 2 3 4 5;
#X obj 991 430 bng 15 250 50 0 empty empty empty 17 7 0 10 #fcfcfc
#000000 #000000 1;
#X obj 955 501 random 9000;
#X obj 955 530 / 900;
#X floatatom 1146 372 5 0 0 0 - - - 0 0 1, f 5;
#X msg 1123 456 2000;
#X obj 1146 429 bng 15 250 50 0 empty empty empty 17 7 0 10 #fcfcfc
#000000 #000000 1;
#X obj 1166 429 bng 15 250 50 0 empty empty empty 17 7 0 10 #fcfcfc
#000000 #000000 1;
#X obj 1189 429 bng 15 250 50 0 empty empty empty 17 7 0 10 #fcfcfc
#000000 #000000 1;
#X obj 1119 391 bng 15 250 50 0 empty empty empty 17 7 0 10 #fcfcfc
#000000 #000000 1;
#X obj 1210 429 bng 15 250 50 0 empty empty empty 17 7 0 10 #fcfcfc
#000000 #000000 1;
#X obj 1146 343 random 6;
#X obj 1146 400 sel 0 1 2 3 4 5;
#X obj 1230 429 bng 15 250 50 0 empty empty empty 17 7 0 10 #fcfcfc
#000000 #000000 1;
#X obj 1194 500 random 9000;
#X obj 1194 529 / 900;
#X floatatom 1366 375 5 0 0 0 - - - 0 0 1, f 5;
#X msg 1384 459 1000;
#X msg 1343 459 2000;
#X obj 1366 432 bng 15 250 50 0 empty empty empty 17 7 0 10 #fcfcfc
#000000 #000000 1;
#X obj 1386 432 bng 15 250 50 0 empty empty empty 17 7 0 10 #fcfcfc
#000000 #000000 1;
#X obj 1409 432 bng 15 250 50 0 empty empty empty 17 7 0 10 #fcfcfc
#000000 #000000 1;
#X obj 1430 432 bng 15 250 50 0 empty empty empty 17 7 0 10 #fcfcfc
#000000 #000000 1;
#X obj 1366 346 random 6;
#X obj 1366 403 sel 0 1 2 3 4 5;
#X obj 1450 432 bng 15 250 50 0 empty empty empty 17 7 0 10 #fcfcfc
#000000 #000000 1;
#X obj 1414 503 random 9000;
#X obj 1414 532 / 900;
#X floatatom 1588 373 5 0 0 0 - - - 0 0 1, f 5;
#X obj 1588 430 bng 15 250 50 0 empty empty empty 17 7 0 10 #fcfcfc
#000000 #000000 1;
#X obj 1608 430 bng 15 250 50 0 empty empty empty 17 7 0 10 #fcfcfc
#000000 #000000 1;
#X obj 1631 430 bng 15 250 50 0 empty empty empty 17 7 0 10 #fcfcfc
#000000 #000000 1;
#X obj 1563 412 bng 15 250 50 0 empty empty empty 17 7 0 10 #fcfcfc
#000000 #000000 1;
#X obj 1652 430 bng 15 250 50 0 empty empty empty 17 7 0 10 #fcfcfc
#000000 #000000 1;
#X obj 1588 344 random 6;
#X obj 1588 401 sel 0 1 2 3 4 5;
#X obj 1672 430 bng 15 250 50 0 empty empty empty 17 7 0 10 #fcfcfc
#000000 #000000 1;
#X obj 1636 501 random 9000;
#X obj 1636 530 / 900;
#X floatatom 1859 393 5 0 0 0 - - - 0 0 1, f 5;
#X obj 1859 450 bng 15 250 50 0 empty empty empty 17 7 0 10 #fcfcfc
#000000 #000000 1;
#X obj 1879 450 bng 15 250 50 0 empty empty empty 17 7 0 10 #fcfcfc
#000000 #000000 1;
#X obj 1902 450 bng 15 250 50 0 empty empty empty 17 7 0 10 #fcfcfc
#000000 #000000 1;
#X obj 1832 412 bng 15 250 50 0 empty empty empty 17 7 0 10 #fcfcfc
#000000 #000000 1;
#X obj 1923 450 bng 15 250 50 0 empty empty empty 17 7 0 10 #fcfcfc
#000000 #000000 1;
#X obj 1859 364 random 6;
#X obj 1859 421 sel 0 1 2 3 4 5;
#X obj 1943 450 bng 15 250 50 0 empty empty empty 17 7 0 10 #fcfcfc
#000000 #000000 1;
#X obj 1347 413 bng 15 250 50 0 empty empty empty 17 7 0 10 #fcfcfc
#000000 #000000 1;
#X msg 145 656 0.1;
#X obj 373 663 *~ 1;
#X obj 332 729 hip~ 150;
#X obj 332 758 hip~ 150;
#X obj 332 787 hip~ 150;
#X obj 1637 556 + 2000;
#X obj 1908 576 + 2000;
#X obj 1907 521 random 15000;
#X obj 1907 550 / 1500;
#X msg 471 1121 1 100;
#X msg 546 1134 0 100;
#X msg 159 1124 1 100;
#X msg 233 1137 0 100;
#X msg 760 1128 1 100;
#X msg 834 1140 0 100;
#X obj 359 1255 *~ 0.5;
#X text 1403 713 Time;
#X obj 1140 1024 *~;
#X obj 1269 1024 *~;
#X obj 1368 733 vsl 33 113 0 1 0 0 empty empty empty 0 -9 0 10 #fcfcfc
#000000 #000000 11200 1 0 1;
#X obj 1447 733 vsl 33 113 0 1 0 0 empty empty empty 0 -9 0 10 #fcfcfc
#000000 #000000 2262 1 0 1;
#X text 1365 713 Vol;
#X text 1447 713 FB;
#X obj 1355 928 line~;
#X obj 1475 923 line~;
#X floatatom 1446 854 5 0 0 0 - - - 0 0 1, f 5;
#X obj 1126 908 delwrite~ del 1000;
#X text 1259 1048 Feedback;
#X obj 1408 733 vsl 32 113 10 1000 0 0 empty empty empty 0 -9 0 10
#fcfcfc #000000 #000000 513 1 0 1;
#X floatatom 1407 852 5 0 0 0 - - - 0 0 1, f 5;
#X floatatom 1368 852 5 0 0 0 - - - 0 0 1, f 5;
#X obj 877 641 tgl 16 0 empty empty empty 17 7 0 10 #fcfcfc #000000
#000000 1 1 1;
#X floatatom 877 756 5 0 0 0 - - - 0 0 1, f 5;
#X obj 990 647 tgl 16 0 empty empty empty 17 7 0 10 #fcfcfc #000000
#000000 1 1 1;
#X obj 986 730 / 1000;
#X obj 986 701 random 1000;
#X floatatom 1084 795 5 0 0 0 - - - 0 0 1, f 5;
#X obj 873 666 metro 55000;
#X obj 986 672 metro 30000;
#X msg 1475 897 \$1 5000;
#X obj 1094 646 tgl 16 0 empty empty empty 17 7 0 10 #fcfcfc #000000
#000000 1 1 1;
#X obj 1090 729 / 1000;
#X obj 1090 700 random 1000;
#X obj 1090 671 metro 30000;
#X msg 1355 902 \$1 5000;
#X obj 873 695 random 200000;
#X obj 1144 652 bng 15 250 50 0 empty empty empty 17 7 0 10 #fcfcfc
#000000 #000000 1;
#X obj 873 724 / 1000;
#X obj 1128 971 delread~ del 10;
#X msg 1096 2006 0.35;
#X obj 1090 758 - 0.2;
#X msg 1430 459 2000;
#X msg 1497 458 1000;
#X obj 829 665 bng 15 250 50 0 empty empty empty 17 7 0 10 #fcfcfc
#000000 #000000 1;
#X obj 759 770 + 0.2;
#X obj 837 787 vsl 15 128 0 1 0 0 empty empty empty 0 -9 0 10 #fcfcfc
#000000 #000000 9614 1 0 1;
#X floatatom 837 929 5 0 0 0 - - - 0 0 1, f 5;
#X msg 1465 459 4000;
#X msg 1612 460 1000;
#X msg 1571 460 2000;
#X msg 1658 460 2000;
#X msg 1725 460 1000;
#X msg 1693 460 4000;
#X msg 1868 477 1000;
#X msg 1827 477 2000;
#X msg 1914 477 2000;
#X msg 1981 476 1000;
#X msg 1949 477 4000;
#X obj 153 508 random 7000;
#X obj 153 537 / 700;
#X floatatom 154 592 5 0 0 0 - - - 0 0 1, f 5;
#X msg 1164 456 2000;
#X msg 1245 456 1250;
#X msg 1277 455 1250;
#X msg 1210 456 1000;
#X msg 1038 456 1250;
#X msg 1006 457 1250;
#X msg 755 464 1250;
#X msg 787 464 1250;
#X msg 720 464 2000;
#X obj 705 563 + 1250;
#X obj 737 1930 tgl 16 0 empty empty empty 17 7 0 10 #fcfcfc #000000
#000000 1 1 1;
#X obj 733 1955 metro 60000;
#N canvas 0 25 1792 999 ramps 0;
#X obj 336 239 inlet;
#X obj 336 297 line~;
#X obj 336 326 outlet~;
#X msg 336 268 \$1 10000;
#X connect 0 0 3 0;
#X connect 1 0 2 0;
#X connect 3 0 1 0;
#X restore 730 2089 pd ramps;
#X obj 736 1904 loadbang;
#X obj 803 1937 bng 15 250 50 0 empty empty empty 17 7 0 10 #fcfcfc
#000000 #000000 1;
#X obj 853 1995 vsl 15 128 0 1 0 0 empty empty empty 0 -9 0 10 #fcfcfc
#000000 #000000 8306 1 0 1;
#X floatatom 855 2141 5 0 0 0 - - - 0 0 1, f 5;
#X floatatom 857 2198 5 0 0 0 - - - 0 0 1, f 5;
#X obj 1110 1639 hip~ 150;
#X obj 1110 1668 hip~ 150;
#X obj 1110 1697 hip~ 150;
#X obj 1042 1708 *~ 0.7;
#X obj 986 759 + 0.4;
#X floatatom 986 788 5 0 0 0 - - - 0 0 1, f 5;
#X obj 1033 652 bng 15 250 50 0 empty empty empty 17 7 0 10 #fcfcfc
#000000 #000000 1;
#X obj 308 660 *~ 0.7;
#X obj 955 556 + 1000;
#X obj 1195 555 + 1000;
#X obj 1415 558 + 500;
#X obj 855 2169 + 0.15;
#X floatatom 665 2065 5 0 0 0 - - - 0 0 1, f 5;
#X obj 733 1984 random 1000;
#X obj 733 2013 / 1000;
#X floatatom 664 2034 5 0 0 0 - - - 0 0 1, f 5;
#X obj 733 2042 - 0.3;
#X connect 0 0 1 0;
#X connect 1 0 9 0;
#X connect 2 0 3 0;
#X connect 2 0 360 0;
#X connect 3 0 7 0;
#X connect 4 0 192 0;
#X connect 4 0 193 0;
#X connect 4 0 195 0;
#X connect 4 0 196 0;
#X connect 4 0 197 0;
#X connect 4 0 194 0;
#X connect 4 0 198 0;
#X connect 4 0 310 0;
#X connect 5 0 201 0;
#X connect 6 0 202 0;
#X connect 7 0 10 0;
#X connect 7 1 6 0;
#X connect 8 0 6 0;
#X connect 9 0 3 1;
#X connect 10 0 8 0;
#X connect 11 0 12 0;
#X connect 11 0 87 0;
#X connect 12 0 13 0;
#X connect 13 0 205 0;
#X connect 14 0 15 0;
#X connect 15 0 24 0;
#X connect 16 0 17 0;
#X connect 16 0 343 0;
#X connect 17 0 20 0;
#X connect 17 0 23 0;
#X connect 18 0 203 0;
#X connect 19 0 204 0;
#X connect 20 0 22 0;
#X connect 20 1 19 0;
#X connect 21 0 19 0;
#X connect 22 0 21 0;
#X connect 24 0 17 1;
#X connect 25 0 26 0;
#X connect 26 0 41 0;
#X connect 27 0 28 0;
#X connect 27 0 327 0;
#X connect 28 0 31 0;
#X connect 28 0 40 0;
#X connect 29 0 208 0;
#X connect 30 0 209 0;
#X connect 31 0 33 0;
#X connect 31 1 30 0;
#X connect 32 0 30 0;
#X connect 33 0 32 0;
#X connect 34 0 225 0;
#X connect 34 0 328 0;
#X connect 35 0 32 1;
#X connect 36 0 32 1;
#X connect 37 0 36 0;
#X connect 38 0 35 0;
#X connect 39 0 502 0;
#X connect 41 0 28 1;
#X connect 42 0 43 0;
#X connect 43 0 52 0;
#X connect 44 0 45 0;
#X connect 44 0 373 0;
#X connect 45 0 48 0;
#X connect 45 0 51 0;
#X connect 46 0 211 0;
#X connect 47 0 212 0;
#X connect 48 0 50 0;
#X connect 48 1 47 0;
#X connect 49 0 47 0;
#X connect 50 0 49 0;
#X connect 52 0 45 1;
#X connect 53 0 54 0;
#X connect 54 0 63 0;
#X connect 55 0 56 0;
#X connect 55 0 385 0;
#X connect 56 0 59 0;
#X connect 56 0 62 0;
#X connect 57 0 214 0;
#X connect 58 0 215 0;
#X connect 59 0 61 0;
#X connect 59 1 58 0;
#X connect 60 0 58 0;
#X connect 61 0 60 0;
#X connect 63 0 56 1;
#X connect 64 0 65 0;
#X connect 65 0 74 0;
#X connect 66 0 67 0;
#X connect 66 0 397 0;
#X connect 67 0 70 0;
#X connect 67 0 73 0;
#X connect 68 0 217 0;
#X connect 69 0 218 0;
#X connect 70 0 72 0;
#X connect 70 1 69 0;
#X connect 71 0 69 0;
#X connect 72 0 71 0;
#X connect 74 0 67 1;
#X connect 75 0 76 0;
#X connect 76 0 85 0;
#X connect 77 0 78 0;
#X connect 77 0 408 0;
#X connect 78 0 81 0;
#X connect 78 0 84 0;
#X connect 79 0 220 0;
#X connect 80 0 221 0;
#X connect 81 0 83 0;
#X connect 81 1 80 0;
#X connect 82 0 80 0;
#X connect 83 0 82 0;
#X connect 85 0 78 1;
#X connect 86 0 13 1;
#X connect 87 0 86 0;
#X connect 87 0 434 0;
#X connect 87 0 90 0;
#X connect 88 0 89 1;
#X connect 89 0 438 0;
#X connect 90 0 435 0;
#X connect 91 0 90 1;
#X connect 92 0 11 0;
#X connect 93 0 91 0;
#X connect 94 0 95 0;
#X connect 94 0 98 0;
#X connect 95 0 96 0;
#X connect 96 0 206 0;
#X connect 97 0 96 1;
#X connect 98 0 97 0;
#X connect 98 0 432 0;
#X connect 98 0 101 0;
#X connect 99 0 100 1;
#X connect 100 0 438 0;
#X connect 101 0 433 0;
#X connect 102 0 101 1;
#X connect 103 0 104 0;
#X connect 103 0 107 0;
#X connect 104 0 105 0;
#X connect 105 0 222 0;
#X connect 106 0 105 1;
#X connect 107 0 106 0;
#X connect 107 0 436 0;
#X connect 107 0 110 0;
#X connect 108 0 109 1;
#X connect 109 0 438 0;
#X connect 110 0 437 0;
#X connect 111 0 110 1;
#X connect 112 0 94 0;
#X connect 113 0 103 0;
#X connect 114 0 102 0;
#X connect 115 0 111 0;
#X connect 116 0 172 0;
#X connect 117 0 171 0;
#X connect 120 0 149 0;
#X connect 120 0 150 1;
#X connect 120 0 117 0;
#X connect 121 0 116 0;
#X connect 122 0 157 0;
#X connect 122 0 158 0;
#X connect 122 0 180 0;
#X connect 123 0 146 0;
#X connect 124 0 142 0;
#X connect 125 0 148 0;
#X connect 125 0 124 0;
#X connect 125 0 151 0;
#X connect 126 0 159 0;
#X connect 126 0 186 0;
#X connect 127 0 126 0;
#X connect 128 0 169 0;
#X connect 129 0 128 0;
#X connect 130 0 140 0;
#X connect 131 0 135 0;
#X connect 132 0 136 0;
#X connect 133 0 137 0;
#X connect 134 0 138 0;
#X connect 135 0 152 0;
#X connect 136 0 153 0;
#X connect 137 0 154 0;
#X connect 138 0 156 0;
#X connect 139 0 131 0;
#X connect 139 0 132 0;
#X connect 139 0 133 0;
#X connect 139 0 134 0;
#X connect 139 0 144 0;
#X connect 140 0 176 0;
#X connect 141 0 127 0;
#X connect 141 0 130 0;
#X connect 141 0 123 0;
#X connect 141 0 147 0;
#X connect 141 0 158 0;
#X connect 141 0 157 0;
#X connect 141 0 187 0;
#X connect 142 0 166 0;
#X connect 143 0 125 0;
#X connect 143 0 179 0;
#X connect 144 0 145 0;
#X connect 145 0 155 0;
#X connect 146 0 122 0;
#X connect 147 0 190 0;
#X connect 149 0 165 0;
#X connect 150 0 164 0;
#X connect 151 0 142 0;
#X connect 152 0 125 0;
#X connect 152 0 179 0;
#X connect 153 0 125 0;
#X connect 153 0 179 0;
#X connect 154 0 143 0;
#X connect 155 0 125 0;
#X connect 155 0 179 0;
#X connect 156 0 125 0;
#X connect 156 0 179 0;
#X connect 157 0 120 0;
#X connect 158 0 121 0;
#X connect 159 0 161 0;
#X connect 160 0 119 0;
#X connect 160 0 188 0;
#X connect 161 0 162 0;
#X connect 162 0 160 0;
#X connect 163 0 164 1;
#X connect 163 0 165 1;
#X connect 164 0 182 0;
#X connect 165 0 182 0;
#X connect 166 0 182 0;
#X connect 167 0 168 0;
#X connect 168 0 173 0;
#X connect 169 0 167 0;
#X connect 170 0 171 1;
#X connect 170 0 172 1;
#X connect 170 0 166 1;
#X connect 171 0 182 0;
#X connect 172 0 182 0;
#X connect 173 0 189 0;
#X connect 173 0 118 0;
#X connect 174 0 226 0;
#X connect 176 0 177 0;
#X connect 177 0 178 0;
#X connect 178 0 139 0;
#X connect 181 0 277 0;
#X connect 182 0 181 0;
#X connect 183 0 191 0;
#X connect 184 0 185 0;
#X connect 185 0 181 1;
#X connect 186 0 183 0;
#X connect 187 0 129 0;
#X connect 188 0 163 0;
#X connect 189 0 170 0;
#X connect 190 0 174 0;
#X connect 191 0 184 0;
#X connect 192 0 5 0;
#X connect 193 0 18 0;
#X connect 194 0 68 0;
#X connect 195 0 29 0;
#X connect 196 0 46 0;
#X connect 197 0 57 0;
#X connect 198 0 79 0;
#X connect 201 0 0 0;
#X connect 201 0 2 0;
#X connect 202 0 519 0;
#X connect 203 0 14 0;
#X connect 203 0 16 0;
#X connect 204 0 519 0;
#X connect 205 0 89 0;
#X connect 206 0 100 0;
#X connect 208 0 25 0;
#X connect 208 0 27 0;
#X connect 209 0 519 0;
#X connect 211 0 42 0;
#X connect 211 0 44 0;
#X connect 212 0 519 0;
#X connect 214 0 53 0;
#X connect 214 0 55 0;
#X connect 215 0 519 0;
#X connect 217 0 64 0;
#X connect 217 0 66 0;
#X connect 218 0 519 0;
#X connect 220 0 75 0;
#X connect 220 0 77 0;
#X connect 221 0 519 0;
#X connect 222 0 109 0;
#X connect 223 0 224 0;
#X connect 224 0 91 0;
#X connect 224 0 102 0;
#X connect 224 0 111 0;
#X connect 225 0 32 0;
#X connect 226 0 146 1;
#X connect 226 0 175 0;
#X connect 227 0 228 0;
#X connect 228 0 232 0;
#X connect 228 0 246 0;
#X connect 229 0 237 0;
#X connect 229 1 230 1;
#X connect 229 2 239 0;
#X connect 230 0 231 0;
#X connect 231 0 238 0;
#X connect 231 1 233 0;
#X connect 231 2 236 0;
#X connect 232 0 234 1;
#X connect 232 0 228 1;
#X connect 232 0 242 0;
#X connect 233 0 234 0;
#X connect 234 0 236 0;
#X connect 235 0 241 1;
#X connect 236 0 244 0;
#X connect 237 0 230 0;
#X connect 238 0 235 0;
#X connect 239 0 235 0;
#X connect 240 0 232 1;
#X connect 241 0 247 0;
#X connect 242 0 233 1;
#X connect 243 0 229 0;
#X connect 244 0 241 0;
#X connect 245 0 244 0;
#X connect 246 0 229 0;
#X connect 247 0 512 0;
#X connect 248 0 247 1;
#X connect 249 0 317 0;
#X connect 250 0 318 0;
#X connect 251 0 276 0;
#X connect 252 0 245 0;
#X connect 253 0 260 0;
#X connect 254 0 261 0;
#X connect 255 0 266 0;
#X connect 255 0 268 0;
#X connect 255 0 275 0;
#X connect 256 0 262 0;
#X connect 257 0 263 0;
#X connect 258 0 264 0;
#X connect 259 0 265 0;
#X connect 260 0 244 0;
#X connect 261 0 244 0;
#X connect 262 0 244 0;
#X connect 263 0 244 0;
#X connect 264 0 244 0;
#X connect 265 0 244 0;
#X connect 266 0 313 0;
#X connect 267 0 269 0;
#X connect 268 0 267 0;
#X connect 269 0 270 0;
#X connect 269 1 271 0;
#X connect 269 2 272 0;
#X connect 270 0 242 1;
#X connect 271 0 242 1;
#X connect 272 0 242 1;
#X connect 274 0 278 0;
#X connect 275 0 251 0;
#X connect 276 0 252 0;
#X connect 276 1 253 0;
#X connect 276 2 254 0;
#X connect 276 3 256 0;
#X connect 276 4 257 0;
#X connect 276 5 258 0;
#X connect 276 6 259 0;
#X connect 277 0 314 0;
#X connect 277 0 314 1;
#X connect 278 0 285 0;
#X connect 279 0 280 0;
#X connect 280 0 281 0;
#X connect 281 0 472 0;
#X connect 281 1 284 0;
#X connect 281 1 282 0;
#X connect 281 1 287 0;
#X connect 281 2 284 0;
#X connect 281 2 283 0;
#X connect 281 2 286 0;
#X connect 284 0 273 0;
#X connect 285 0 279 0;
#X connect 288 0 2 0;
#X connect 289 0 16 0;
#X connect 290 0 27 0;
#X connect 291 0 44 0;
#X connect 292 0 55 0;
#X connect 293 0 66 0;
#X connect 294 0 77 0;
#X connect 295 0 296 0;
#X connect 296 0 305 0;
#X connect 297 0 298 0;
#X connect 297 0 419 0;
#X connect 298 0 301 0;
#X connect 298 0 304 0;
#X connect 299 0 307 0;
#X connect 300 0 308 0;
#X connect 301 0 303 0;
#X connect 301 1 300 0;
#X connect 302 0 300 0;
#X connect 303 0 302 0;
#X connect 305 0 298 1;
#X connect 307 0 295 0;
#X connect 307 0 297 0;
#X connect 308 0 424 0;
#X connect 309 0 297 0;
#X connect 310 0 299 0;
#X connect 311 0 227 0;
#X connect 312 0 227 0;
#X connect 313 0 240 0;
#X connect 315 0 316 0;
#X connect 315 0 316 1;
#X connect 317 0 248 0;
#X connect 317 0 255 0;
#X connect 317 0 311 0;
#X connect 318 0 248 0;
#X connect 318 0 312 0;
#X connect 319 0 320 0;
#X connect 320 0 321 0;
#X connect 321 0 322 0;
#X connect 322 0 477 0;
#X connect 323 0 315 1;
#X connect 324 0 319 0;
#X connect 324 0 454 0;
#X connect 324 0 456 0;
#X connect 324 0 463 0;
#X connect 325 0 273 0;
#X connect 326 0 500 0;
#X connect 327 0 34 0;
#X connect 328 0 37 0;
#X connect 328 1 38 0;
#X connect 328 2 39 0;
#X connect 328 3 326 0;
#X connect 328 4 501 0;
#X connect 328 5 329 0;
#X connect 329 0 330 0;
#X connect 330 0 331 0;
#X connect 331 0 503 0;
#X connect 332 0 339 0;
#X connect 332 0 344 0;
#X connect 333 0 21 1;
#X connect 334 0 21 1;
#X connect 335 0 21 1;
#X connect 336 0 335 0;
#X connect 337 0 333 0;
#X connect 338 0 334 0;
#X connect 339 0 21 0;
#X connect 340 0 21 1;
#X connect 341 0 340 0;
#X connect 342 0 21 1;
#X connect 343 0 332 0;
#X connect 344 0 336 0;
#X connect 344 1 337 0;
#X connect 344 2 338 0;
#X connect 344 3 341 0;
#X connect 344 4 342 0;
#X connect 344 5 346 0;
#X connect 345 0 21 1;
#X connect 346 0 347 0;
#X connect 347 0 348 0;
#X connect 348 0 345 0;
#X connect 349 0 356 0;
#X connect 349 0 361 0;
#X connect 350 0 8 1;
#X connect 351 0 8 1;
#X connect 352 0 8 1;
#X connect 353 0 352 0;
#X connect 354 0 350 0;
#X connect 355 0 351 0;
#X connect 356 0 10 0;
#X connect 357 0 8 1;
#X connect 358 0 357 0;
#X connect 359 0 8 1;
#X connect 360 0 349 0;
#X connect 361 0 353 0;
#X connect 361 1 354 0;
#X connect 361 2 355 0;
#X connect 361 3 358 0;
#X connect 361 4 359 0;
#X connect 361 5 363 0;
#X connect 362 0 8 1;
#X connect 362 0 493 0;
#X connect 363 0 491 0;
#X connect 364 0 371 0;
#X connect 364 0 374 0;
#X connect 365 0 49 1;
#X connect 366 0 49 1;
#X connect 367 0 49 1;
#X connect 368 0 367 0;
#X connect 369 0 365 0;
#X connect 370 0 366 0;
#X connect 371 0 49 0;
#X connect 372 0 499 0;
#X connect 373 0 364 0;
#X connect 374 0 368 0;
#X connect 374 1 369 0;
#X connect 374 2 370 0;
#X connect 374 3 372 0;
#X connect 374 4 498 0;
#X connect 374 5 375 0;
#X connect 375 0 376 0;
#X connect 376 0 377 0;
#X connect 377 0 520 0;
#X connect 378 0 383 0;
#X connect 378 0 386 0;
#X connect 379 0 60 1;
#X connect 380 0 379 0;
#X connect 381 0 494 0;
#X connect 382 0 497 0;
#X connect 383 0 60 0;
#X connect 384 0 495 0;
#X connect 385 0 378 0;
#X connect 386 0 380 0;
#X connect 386 1 381 0;
#X connect 386 2 382 0;
#X connect 386 3 384 0;
#X connect 386 4 496 0;
#X connect 386 5 387 0;
#X connect 387 0 388 0;
#X connect 388 0 389 0;
#X connect 389 0 521 0;
#X connect 390 0 398 0;
#X connect 390 0 422 0;
#X connect 391 0 71 1;
#X connect 392 0 71 1;
#X connect 393 0 392 0;
#X connect 394 0 391 0;
#X connect 395 0 474 0;
#X connect 396 0 480 0;
#X connect 397 0 390 0;
#X connect 398 0 393 0;
#X connect 398 1 394 0;
#X connect 398 2 395 0;
#X connect 398 3 396 0;
#X connect 398 4 475 0;
#X connect 398 5 399 0;
#X connect 399 0 400 0;
#X connect 400 0 401 0;
#X connect 401 0 522 0;
#X connect 402 0 409 0;
#X connect 402 0 406 0;
#X connect 403 0 482 0;
#X connect 404 0 481 0;
#X connect 405 0 483 0;
#X connect 406 0 82 0;
#X connect 407 0 485 0;
#X connect 408 0 402 0;
#X connect 409 0 403 0;
#X connect 409 1 404 0;
#X connect 409 2 405 0;
#X connect 409 3 407 0;
#X connect 409 4 484 0;
#X connect 409 5 410 0;
#X connect 410 0 411 0;
#X connect 411 0 412 0;
#X connect 412 0 428 0;
#X connect 413 0 417 0;
#X connect 413 0 420 0;
#X connect 414 0 487 0;
#X connect 415 0 486 0;
#X connect 416 0 488 0;
#X connect 417 0 302 0;
#X connect 418 0 490 0;
#X connect 419 0 413 0;
#X connect 420 0 414 0;
#X connect 420 1 415 0;
#X connect 420 2 416 0;
#X connect 420 3 418 0;
#X connect 420 4 489 0;
#X connect 420 5 421 0;
#X connect 421 0 430 0;
#X connect 422 0 71 0;
#X connect 423 0 6 0;
#X connect 423 0 19 0;
#X connect 423 0 30 0;
#X connect 423 0 47 0;
#X connect 423 0 58 0;
#X connect 423 0 69 0;
#X connect 423 0 80 0;
#X connect 423 0 300 0;
#X connect 424 0 425 0;
#X connect 424 0 449 0;
#X connect 425 0 426 0;
#X connect 426 0 427 0;
#X connect 427 0 315 0;
#X connect 427 0 449 0;
#X connect 428 0 82 1;
#X connect 429 0 302 1;
#X connect 430 0 431 0;
#X connect 431 0 429 0;
#X connect 432 0 99 0;
#X connect 433 0 99 0;
#X connect 434 0 88 0;
#X connect 435 0 88 0;
#X connect 436 0 108 0;
#X connect 437 0 108 0;
#X connect 438 0 315 0;
#X connect 438 0 449 0;
#X connect 440 0 315 0;
#X connect 441 0 449 0;
#X connect 442 0 453 0;
#X connect 443 0 448 0;
#X connect 446 0 440 1;
#X connect 447 0 441 1;
#X connect 448 0 462 0;
#X connect 451 0 452 0;
#X connect 452 0 471 0;
#X connect 453 0 467 0;
#X connect 454 0 460 0;
#X connect 455 0 451 0;
#X connect 456 0 461 0;
#X connect 457 0 516 0;
#X connect 458 0 457 0;
#X connect 459 0 443 0;
#X connect 460 0 468 0;
#X connect 461 0 458 0;
#X connect 462 0 447 0;
#X connect 463 0 466 0;
#X connect 464 0 473 0;
#X connect 465 0 464 0;
#X connect 466 0 465 0;
#X connect 467 0 446 0;
#X connect 468 0 470 0;
#X connect 469 0 465 0;
#X connect 470 0 455 0;
#X connect 471 0 440 0;
#X connect 471 0 441 0;
#X connect 472 0 286 0;
#X connect 472 0 287 0;
#X connect 472 0 273 0;
#X connect 473 0 459 0;
#X connect 474 0 71 1;
#X connect 475 0 71 1;
#X connect 476 0 321 0;
#X connect 477 0 478 0;
#X connect 478 0 479 0;
#X connect 478 0 323 0;
#X connect 480 0 71 1;
#X connect 481 0 82 1;
#X connect 482 0 82 1;
#X connect 483 0 82 1;
#X connect 484 0 82 1;
#X connect 485 0 82 1;
#X connect 486 0 302 1;
#X connect 487 0 302 1;
#X connect 488 0 302 1;
#X connect 489 0 302 1;
#X connect 490 0 302 1;
#X connect 491 0 492 0;
#X connect 492 0 362 0;
#X connect 494 0 60 1;
#X connect 495 0 60 1;
#X connect 496 0 60 1;
#X connect 497 0 60 1;
#X connect 498 0 49 1;
#X connect 499 0 49 1;
#X connect 500 0 32 1;
#X connect 501 0 32 1;
#X connect 502 0 32 1;
#X connect 503 0 32 1;
#X connect 504 0 505 0;
#X connect 505 0 525 0;
#X connect 506 0 277 1;
#X connect 507 0 504 0;
#X connect 508 0 525 0;
#X connect 509 0 510 0;
#X connect 510 0 523 0;
#X connect 511 0 506 0;
#X connect 512 0 513 0;
#X connect 513 0 514 0;
#X connect 514 0 515 0;
#X connect 515 0 315 0;
#X connect 515 0 449 0;
#X connect 516 0 517 0;
#X connect 517 0 442 0;
#X connect 518 0 458 0;
#X connect 519 0 425 0;
#X connect 520 0 49 1;
#X connect 521 0 60 1;
#X connect 522 0 71 1;
#X connect 523 0 511 0;
#X connect 525 0 526 0;
#X connect 526 0 527 0;
#X connect 526 0 528 0;
#X connect 528 0 509 0;
#X connect 528 0 524 0;
