#N canvas 122 25 1669 996 12;
#X obj 31 287 soundfiler;
#X floatatom 31 316 13 0 0 0 - - - 0 0 1, f 13;
#X obj 183 274 bng 41 250 50 0 empty empty empty 17 7 0 10 #fcfcfc
#000000 #000000 1;
#X obj 30 387 random;
#X obj 221 78 loadbang;
#X obj 24 223 pack s \$0;
#X obj 17 555 line~;
#X obj 28 419 t f f;
#X obj 34 518 pack f f;
#X obj 31 344 - 44100;
#X obj 34 489 + 44100;
#X floatatom 128 387 5 0 0 0 - - - 0 0 1, f 5;
#X obj 128 415 sel 0 1 2;
#X msg 146 471 1000;
#X msg 192 471 500;
#X msg 105 471 2000;
#X obj 128 358 random 3;
#X obj 128 444 bng 15 250 50 0 empty empty empty 17 7 0 10 #fcfcfc
#000000 #000000 1;
#X obj 148 444 bng 15 250 50 0 empty empty empty 17 7 0 10 #fcfcfc
#000000 #000000 1;
#X obj 171 444 bng 15 250 50 0 empty empty empty 17 7 0 10 #fcfcfc
#000000 #000000 1;
#X floatatom 43 840 5 0 0 0 - - - 0 0 1, f 5;
#X obj 64 915 phasor~;
#X obj 64 944 *~;
#X obj 270 285 soundfiler;
#X floatatom 270 314 13 0 0 0 - - - 0 0 1, f 13;
#X obj 422 272 bng 41 250 50 0 empty empty empty 17 7 0 10 #fcfcfc
#000000 #000000 1;
#X obj 269 385 random;
#X obj 263 221 pack s \$0;
#X obj 316 553 line~;
#X obj 267 445 t f f;
#X obj 273 516 pack f f;
#X obj 273 487 + 44100;
#X floatatom 367 385 5 0 0 0 - - - 0 0 1, f 5;
#X obj 367 413 sel 0 1 2;
#X msg 385 469 1000;
#X msg 431 469 500;
#X msg 344 469 2000;
#X obj 367 356 random 3;
#X obj 367 442 bng 15 250 50 0 empty empty empty 17 7 0 10 #fcfcfc
#000000 #000000 1;
#X obj 387 442 bng 15 250 50 0 empty empty empty 17 7 0 10 #fcfcfc
#000000 #000000 1;
#X obj 410 442 bng 15 250 50 0 empty empty empty 17 7 0 10 #fcfcfc
#000000 #000000 1;
#X floatatom 269 414 5 0 0 0 - - - 0 0 1, f 5;
#X obj 270 342 - 22000;
#X obj 559 280 soundfiler;
#X floatatom 559 309 13 0 0 0 - - - 0 0 1, f 13;
#X obj 711 267 bng 41 250 50 0 empty empty empty 17 7 0 10 #fcfcfc
#000000 #000000 1;
#X obj 558 380 random;
#X obj 552 216 pack s \$0;
#X obj 545 548 line~;
#X obj 556 440 t f f;
#X obj 562 511 pack f f;
#X obj 562 482 + 44100;
#X floatatom 656 380 5 0 0 0 - - - 0 0 1, f 5;
#X obj 656 408 sel 0 1 2;
#X msg 674 464 1000;
#X msg 720 464 500;
#X msg 633 464 2000;
#X obj 656 351 random 3;
#X obj 656 437 bng 15 250 50 0 empty empty empty 17 7 0 10 #fcfcfc
#000000 #000000 1;
#X obj 676 437 bng 15 250 50 0 empty empty empty 17 7 0 10 #fcfcfc
#000000 #000000 1;
#X obj 699 437 bng 15 250 50 0 empty empty empty 17 7 0 10 #fcfcfc
#000000 #000000 1;
#X floatatom 558 409 5 0 0 0 - - - 0 0 1, f 5;
#X obj 559 337 - 22000;
#X obj 828 283 soundfiler;
#X floatatom 828 312 13 0 0 0 - - - 0 0 1, f 13;
#X obj 980 270 bng 41 250 50 0 empty empty empty 17 7 0 10 #fcfcfc
#000000 #000000 1;
#X obj 827 383 random;
#X obj 821 219 pack s \$0;
#X obj 814 551 line~;
#X obj 825 443 t f f;
#X obj 831 514 pack f f;
#X obj 831 485 + 44100;
#X floatatom 925 383 5 0 0 0 - - - 0 0 1, f 5;
#X obj 925 411 sel 0 1 2;
#X msg 943 467 1000;
#X msg 989 467 500;
#X msg 902 467 2000;
#X obj 925 354 random 3;
#X obj 925 440 bng 15 250 50 0 empty empty empty 17 7 0 10 #fcfcfc
#000000 #000000 1;
#X obj 945 440 bng 15 250 50 0 empty empty empty 17 7 0 10 #fcfcfc
#000000 #000000 1;
#X obj 968 440 bng 15 250 50 0 empty empty empty 17 7 0 10 #fcfcfc
#000000 #000000 1;
#X floatatom 827 412 5 0 0 0 - - - 0 0 1, f 5;
#X obj 828 340 - 22000;
#X obj 1071 284 soundfiler;
#X floatatom 1071 313 13 0 0 0 - - - 0 0 1, f 13;
#X obj 1223 271 bng 41 250 50 0 empty empty empty 17 7 0 10 #fcfcfc
#000000 #000000 1;
#X obj 1070 384 random;
#X obj 1064 220 pack s \$0;
#X obj 1057 552 line~;
#X obj 1068 444 t f f;
#X obj 1074 515 pack f f;
#X obj 1074 486 + 44100;
#X floatatom 1168 384 5 0 0 0 - - - 0 0 1, f 5;
#X obj 1168 412 sel 0 1 2;
#X msg 1186 468 1000;
#X msg 1232 468 500;
#X msg 1145 468 2000;
#X obj 1168 355 random 3;
#X obj 1168 441 bng 15 250 50 0 empty empty empty 17 7 0 10 #fcfcfc
#000000 #000000 1;
#X obj 1188 441 bng 15 250 50 0 empty empty empty 17 7 0 10 #fcfcfc
#000000 #000000 1;
#X obj 1211 441 bng 15 250 50 0 empty empty empty 17 7 0 10 #fcfcfc
#000000 #000000 1;
#X floatatom 1070 413 5 0 0 0 - - - 0 0 1, f 5;
#X obj 1071 341 - 22000;
#X obj 1303 285 soundfiler;
#X floatatom 1303 314 13 0 0 0 - - - 0 0 1, f 13;
#X obj 1455 272 bng 41 250 50 0 empty empty empty 17 7 0 10 #fcfcfc
#000000 #000000 1;
#X obj 1302 385 random;
#X obj 1296 221 pack s \$0;
#X obj 1289 553 line~;
#X obj 1300 445 t f f;
#X obj 1306 516 pack f f;
#X obj 1306 487 + 44100;
#X floatatom 1400 385 5 0 0 0 - - - 0 0 1, f 5;
#X obj 1400 413 sel 0 1 2;
#X msg 1418 469 1000;
#X msg 1464 469 500;
#X msg 1377 469 2000;
#X obj 1400 356 random 3;
#X obj 1400 442 bng 15 250 50 0 empty empty empty 17 7 0 10 #fcfcfc
#000000 #000000 1;
#X obj 1420 442 bng 15 250 50 0 empty empty empty 17 7 0 10 #fcfcfc
#000000 #000000 1;
#X obj 1443 442 bng 15 250 50 0 empty empty empty 17 7 0 10 #fcfcfc
#000000 #000000 1;
#X floatatom 1302 414 5 0 0 0 - - - 0 0 1, f 5;
#X obj 1303 342 - 22000;
#X obj 1524 286 soundfiler;
#X floatatom 1524 315 13 0 0 0 - - - 0 0 1, f 13;
#X obj 1676 273 bng 41 250 50 0 empty empty empty 17 7 0 10 #fcfcfc
#000000 #000000 1;
#X obj 1523 386 random;
#X obj 1517 222 pack s \$0;
#X obj 1510 554 line~;
#X obj 1521 446 t f f;
#X obj 1527 517 pack f f;
#X obj 1527 488 + 44100;
#X floatatom 1621 386 5 0 0 0 - - - 0 0 1, f 5;
#X obj 1621 414 sel 0 1 2;
#X msg 1639 470 1000;
#X msg 1685 470 500;
#X msg 1598 470 2000;
#X obj 1621 357 random 3;
#X obj 1621 443 bng 15 250 50 0 empty empty empty 17 7 0 10 #fcfcfc
#000000 #000000 1;
#X obj 1641 443 bng 15 250 50 0 empty empty empty 17 7 0 10 #fcfcfc
#000000 #000000 1;
#X obj 1664 443 bng 15 250 50 0 empty empty empty 17 7 0 10 #fcfcfc
#000000 #000000 1;
#X floatatom 1523 415 5 0 0 0 - - - 0 0 1, f 5;
#X obj 1524 343 - 22000;
#X msg 171 905 44100;
#X obj 101 867 bng 36 250 50 0 empty empty empty 17 7 0 10 #fcfcfc
#000000 #000000 1;
#X obj 159 1033 line~;
#X obj 64 1009 *~;
#X obj 233 988 delay;
#X floatatom 265 959 5 0 0 0 - - - 0 0 1, f 5;
#X msg 159 1004 1 1000;
#X msg 233 1017 0 1000;
#X obj 67 1186 dac~;
#X obj 38 791 r fastuno;
#X obj 265 919 r duruno;
#X floatatom 355 837 5 0 0 0 - - - 0 0 1, f 5;
#X obj 376 912 phasor~;
#X obj 376 941 *~;
#X msg 483 902 44100;
#X obj 413 864 bng 36 250 50 0 empty empty empty 17 7 0 10 #fcfcfc
#000000 #000000 1;
#X obj 471 1030 line~;
#X obj 376 1006 *~;
#X obj 545 985 delay;
#X floatatom 577 956 5 0 0 0 - - - 0 0 1, f 5;
#X msg 471 1001 1 1000;
#X msg 545 1014 0 1000;
#X floatatom 644 844 5 0 0 0 - - - 0 0 1, f 5;
#X obj 665 919 phasor~;
#X obj 665 948 *~;
#X msg 772 909 44100;
#X obj 702 871 bng 36 250 50 0 empty empty empty 17 7 0 10 #fcfcfc
#000000 #000000 1;
#X obj 760 1037 line~;
#X obj 665 1013 *~;
#X obj 834 992 delay;
#X floatatom 866 963 5 0 0 0 - - - 0 0 1, f 5;
#X msg 760 1008 1 1000;
#X msg 834 1021 0 1000;
#X obj 350 788 r fastdue;
#X obj 639 795 r fasttre;
#X obj 577 916 r durdue;
#X obj 866 923 r durtre;
#X obj 728 1831 phasor~ 220;
#X obj 470 1887 osc~ 220;
#X obj 386 1489 vsl 15 128 0 127 0 0 empty empty empty 0 -9 0 10 #fcfcfc
#000000 #000000 49 1 0 1;
#X obj 55 1622 vsl 15 128 0 127 0 0 empty empty empty 0 -9 0 10 #fcfcfc
#000000 #000000 55 1 0 1;
#X obj 221 1810 mtof;
#X obj 729 1799 mtof;
#X obj 610 1500 bng 15 250 50 0 empty empty empty 17 7 0 10 #fcfcfc
#000000 #000000 1;
#X obj 621 1340 tgl 15 0 empty empty empty 17 7 0 10 #fcfcfc #000000
#000000 1 1 1;
#X obj 1018 1757 phasor~ 220;
#X obj 1087 1673 mtof;
#X obj 58 1571 metro 5000;
#X obj 72 1537 tgl 15 0 empty empty empty 17 7 0 10 #fcfcfc #000000
#000000 1 1 1;
#X obj 324 1425 metro 5000;
#X obj 322 1369 tgl 15 0 empty empty empty 17 7 0 10 #fcfcfc #000000
#000000 1 1 1;
#X obj 1040 1340 tgl 15 0 empty empty empty 17 7 0 10 #fcfcfc #000000
#000000 1 1 1;
#X obj 1058 1560 sel 60;
#X obj 1104 1560 sel 69;
#X obj 1149 1561 sel 81;
#X obj 1243 1561 sel 76;
#X obj 1087 1588 bng 15 250 50 0 empty empty empty 17 7 0 10 #fcfcfc
#000000 #000000 1;
#X obj 1119 1588 bng 15 250 50 0 empty empty empty 17 7 0 10 #fcfcfc
#000000 #000000 1;
#X obj 1159 1588 bng 15 250 50 0 empty empty empty 17 7 0 10 #fcfcfc
#000000 #000000 1;
#X obj 1210 1588 bng 15 250 50 0 empty empty empty 17 7 0 10 #fcfcfc
#000000 #000000 1;
#X obj 1143 1519 i;
#X obj 1020 1361 metro 250;
#X obj 121 1272 loadbang;
#X obj 1115 1788 *~ 0.6;
#X obj 1159 1640 + 12;
#X obj 1195 1562 sel 73;
#X obj 1187 1588 bng 15 250 50 0 empty empty empty 17 7 0 10 #fcfcfc
#000000 #000000 1;
#X obj 614 1464 metro;
#X obj 468 1338 tgl 15 0 empty empty empty 17 7 0 10 #fcfcfc #000000
#000000 1 1 1;
#X floatatom 1024 1691 5 0 0 0 - - - 0 0 1, f 5;
#X obj 222 1833 phasor~ 392;
#X obj 140 1870 osc~ 392;
#X obj 1114 1759 osc~ 392;
#X msg 1087 1620 55;
#X msg 1119 1620 62;
#X msg 1159 1620 79;
#X msg 1195 1641 79;
#X msg 1228 1641 86;
#X msg 220 1789 43, f 2;
#X msg 737 1778 43;
#X obj 93 1605 random 4000;
#X obj 93 1686 + 0.4;
#X obj 93 1634 / 1000;
#X obj 93 1661 / 10;
#X obj 93 1744 line~;
#X obj 144 1934 *~;
#X obj 230 1910 *~;
#X obj 1109 1841 *~;
#X obj 326 1482 / 1000;
#X obj 326 1509 / 10;
#X obj 326 1453 random 5000;
#X obj 328 1599 line~;
#X obj 472 1915 *~;
#X obj 732 1906 *~;
#X obj 326 1538 + 0.3;
#X obj 469 1390 random 2000;
#X floatatom 469 1448 5 0 0 0 - - - 0 0 1, f 5;
#X obj 1027 1386 random 24;
#X obj 1027 1415 + 59;
#X floatatom 1027 1444 5 0 0 0 - - - 0 0 1, f 5;
#X obj 1296 1774 s note;
#X obj 721 1522 s metrovar;
#X obj 372 2153 vcf~ 4;
#X obj 369 2062 *~ 0.7;
#X obj 510 2088 random 1000;
#X msg 510 2146 \$1 1000;
#X obj 510 2175 line~;
#X obj 511 2070 bng 15 250 50 0 empty empty empty 17 7 0 10 #fcfcfc
#000000 #000000 1;
#X obj 259 1337 delay 1000;
#X msg 93 1715 \$1 1000;
#X msg 328 1570 \$1 1000;
#X obj 468 1358 metro 6300;
#X obj 510 2117 + 100;
#X obj 248 674 dac~;
#X msg 21 196 ./samples/a.wav;
#X msg 261 194 ./samples/b.wav;
#X msg 1294 195 ./samples/f.wav;
#X msg 524 184 ./samples/c.wav;
#X msg 819 193 ./samples/d.wav;
#X msg 1062 194 ./samples/e.wav;
#X msg 1515 196 ./samples/g.wav;
#X obj 165 199 table uno;
#X obj 398 196 table due;
#X msg 30 253 read -resize \$1 uno;
#X obj 17 584 tabread4~ uno;
#X msg 270 251 read -resize \$1 due;
#X obj 256 582 tabread4~ due;
#X obj 64 980 tabread4~ uno;
#X obj 376 977 tabread4~ due;
#X obj 664 185 table tre;
#X msg 559 246 read -resize \$1 tre;
#X obj 546 577 tabread4~ tre;
#X obj 949 195 table quattro;
#X msg 828 249 read -resize \$1 quattro;
#X obj 815 580 tabread4~ quattro;
#X obj 1197 196 table cinque;
#X msg 1071 250 read -resize \$1 cinque;
#X obj 1059 581 tabread4~ cinque;
#X obj 1423 196 table sei;
#X msg 1302 251 read -resize \$1 sei;
#X obj 1290 582 tabread4~ sei;
#X obj 1654 207 table sette;
#X msg 1525 253 read -resize \$1 sette;
#X obj 1511 583 tabread4~ sette;
#X obj 665 984 tabread4~ tre;
#X obj 220 789 loadbang;
#X msg 220 818 3000;
#X obj 1141 403 bng 15 250 50 0 empty empty empty 17 7 0 10 #fcfcfc
#000000 #000000 1;
#X obj 100 407 bng 15 250 50 0 empty empty empty 17 7 0 10 #fcfcfc
#000000 #000000 1;
#X obj 337 405 bng 15 250 50 0 empty empty empty 17 7 0 10 #fcfcfc
#000000 #000000 1;
#X obj 629 399 bng 15 250 50 0 empty empty empty 17 7 0 10 #fcfcfc
#000000 #000000 1;
#X obj 895 411 bng 15 250 50 0 empty empty empty 17 7 0 10 #fcfcfc
#000000 #000000 1;
#X obj 1370 403 bng 15 250 50 0 empty empty empty 17 7 0 10 #fcfcfc
#000000 #000000 1;
#X obj 1591 404 bng 15 250 50 0 empty empty empty 17 7 0 10 #fcfcfc
#000000 #000000 1;
#X obj 469 1419 + 70;
#X obj 1042 822 tgl 45 0 empty empty empty 17 7 0 10 #fcfcfc #000000
#000000 1 1 1;
#X obj 1042 880 metro 1000;
#X obj 1042 985 t b f b;
#X obj 1042 1031 i;
#X obj 1042 1053 t b f f;
#X obj 1126 982 i;
#X obj 1145 1093 +, f 4;
#X obj 1145 1115 pack f f;
#X obj 1048 1165 line~;
#X obj 1144 1158 line~;
#X obj 1042 1009 delay 32;
#X msg 1031 1112 1 30;
#X msg 1074 1114 0 30;
#X floatatom 1141 939 5 0 0 0 - - - 0 0 1, f 5;
#X obj 1147 1220 *~;
#X obj 1110 1022 * 44.1;
#X msg 1044 951 10;
#X obj 1144 1181 tabread~ cinque;
#X msg 1368 1133 set uno;
#X obj 1040 789 loadbang;
#X obj 1042 909 random 40000;
#X obj 1108 1258 *~;
#X obj 1204 1291 line~;
#X msg 1204 1262 1 100;
#X msg 1278 1275 0 100;
#X obj 1108 1287 dac~;
#X obj 1198 1230 r startvelox;
#X obj 1295 1230 r stopvelox;
#X floatatom 1390 1045 5 0 0 0 - - - 0 0 1, f 5;
#X obj 1390 1102 bng 15 250 50 0 empty empty empty 17 7 0 10 #fcfcfc
#000000 #000000 1;
#X obj 1409 1102 bng 15 250 50 0 empty empty empty 17 7 0 10 #fcfcfc
#000000 #000000 1;
#X obj 1428 1102 bng 15 250 50 0 empty empty empty 17 7 0 10 #fcfcfc
#000000 #000000 1;
#X obj 1269 814 bng 66 250 50 0 empty empty empty 17 7 0 10 #fcfcfc
#000000 #000000 1;
#X obj 1447 1102 bng 15 250 50 0 empty empty empty 17 7 0 10 #fcfcfc
#000000 #000000 1;
#X obj 1466 1102 bng 15 250 50 0 empty empty empty 17 7 0 10 #fcfcfc
#000000 #000000 1;
#X obj 1485 1102 bng 15 250 50 0 empty empty empty 17 7 0 10 #fcfcfc
#000000 #000000 1;
#X obj 1504 1102 bng 15 250 50 0 empty empty empty 17 7 0 10 #fcfcfc
#000000 #000000 1;
#X msg 1427 1133 set due;
#X msg 1489 1133 set tre;
#X msg 1548 1133 set quattro;
#X msg 1430 1159 set cinque;
#X msg 1512 1159 set sei;
#X msg 1571 1159 set sette;
#X obj 1269 889 random 25;
#X obj 1269 918 + 70;
#X obj 367 2229 dac~;
#X floatatom 1224 975 5 0 0 0 - - - 0 0 1, f 5;
#X obj 1224 946 random 3;
#X obj 1224 1004 sel 0 1 2;
#X msg 1217 1033 44.1;
#X msg 1260 1034 88.2;
#X msg 1301 1034 22.05;
#N canvas 0 25 1792 996 ramps 0;
#X obj 336 239 inlet;
#X obj 336 297 line~;
#X obj 336 326 outlet~;
#X msg 336 268 \$1 10000;
#X connect 0 0 3 0;
#X connect 1 0 2 0;
#X connect 3 0 1 0;
#X restore 929 2130 pd ramps;
#X obj 1323 1909 loadbang;
#X obj 1327 2131 *~;
#N canvas 0 25 1792 996 ramps 0;
#X obj 336 239 inlet;
#X obj 336 297 line~;
#X obj 336 326 outlet~;
#X msg 336 268 \$1 10000;
#X connect 0 0 3 0;
#X connect 1 0 2 0;
#X connect 3 0 1 0;
#X restore 1405 2110 pd ramps;
#N canvas 24 25 1768 996 sampleuno 0;
#X obj 76 206 soundfiler;
#X obj 73 148 pack s;
#X floatatom 76 235 11 0 0 0 - - - 0 0 1, f 11;
#X obj 13 26 inlet;
#X obj 13 554 outlet~;
#X obj 157 206 table ymca;
#X obj 29 521 tabread4~ ymca;
#X obj 83 403 phasor~;
#X obj 83 432 *~;
#X msg 75 177 read -resize \$1 ymca ymca2;
#X obj 237 206 table ymca2;
#X obj 231 403 phasor~;
#X obj 231 432 *~;
#X obj 177 521 tabread4~ ymca2;
#X obj 168 560 outlet~;
#X msg 280 309 44100;
#X obj 269 247 t b;
#X obj 371 332 /;
#X floatatom 371 361 5 0 0 0 - - - 0 0 1, f 5;
#X connect 0 0 2 0;
#X connect 1 0 9 0;
#X connect 2 0 8 1;
#X connect 2 0 12 1;
#X connect 2 0 16 0;
#X connect 2 0 17 1;
#X connect 3 0 1 0;
#X connect 6 0 4 0;
#X connect 7 0 8 0;
#X connect 8 0 6 0;
#X connect 9 0 0 0;
#X connect 11 0 12 0;
#X connect 12 0 13 0;
#X connect 13 0 14 0;
#X connect 15 0 17 0;
#X connect 16 0 15 0;
#X connect 17 0 18 0;
#X connect 17 0 7 0;
#X connect 17 0 11 0;
#X restore 1323 1965 pd sampleuno;
#X msg 1323 1937 ./samples/o.wav;
#X obj 1391 1016 random 7;
#X obj 1390 1074 sel 0 1 2 3 4 5 6;
#X obj 372 2182 *~;
#X obj 1139 1872 tgl 15 0 empty empty empty 17 7 0 10 #fcfcfc #000000
#000000 1 1 1;
#X obj 1139 1920 random 3;
#X floatatom 1139 1949 5 0 0 0 - - - 0 0 1, f 5;
#X obj 1139 1978 sel 0 1 2;
#X msg 1157 2007 1;
#X msg 1096 2006 0.5;
#X msg 1185 2008 1;
#X obj 1525 1906 loadbang;
#X obj 1529 2128 *~;
#N canvas 0 25 1792 996 ramps 0;
#X obj 336 239 inlet;
#X obj 336 297 line~;
#X obj 336 326 outlet~;
#X msg 336 268 \$1 10000;
#X connect 0 0 3 0;
#X connect 1 0 2 0;
#X connect 3 0 1 0;
#X restore 1607 2107 pd ramps;
#N canvas 0 25 1792 996 sampledue 0;
#X obj 76 206 soundfiler;
#X obj 73 148 pack s;
#X floatatom 76 235 11 0 0 0 - - - 0 0 1, f 11;
#X obj 13 26 inlet;
#X obj 13 504 outlet~;
#X obj 83 353 phasor~;
#X obj 83 382 *~;
#X obj 231 353 phasor~;
#X obj 231 382 *~;
#X obj 168 510 outlet~;
#X obj 157 205 table ymcaz;
#X obj 237 205 table ymcaz2;
#X msg 75 177 read -resize \$1 ymcaz ymcaz2;
#X obj 29 471 tabread4~ ymcaz;
#X obj 178 471 tabread4~ ymcaz2;
#X msg 415 324 44100;
#X obj 404 262 t b;
#X obj 506 347 /;
#X floatatom 506 376 5 0 0 0 - - - 0 0 1, f 5;
#X connect 0 0 2 0;
#X connect 1 0 12 0;
#X connect 2 0 6 1;
#X connect 2 0 8 1;
#X connect 2 0 16 0;
#X connect 2 0 17 1;
#X connect 3 0 1 0;
#X connect 5 0 6 0;
#X connect 6 0 13 0;
#X connect 7 0 8 0;
#X connect 8 0 14 0;
#X connect 12 0 0 0;
#X connect 13 0 4 0;
#X connect 14 0 9 0;
#X connect 15 0 17 0;
#X connect 16 0 15 0;
#X connect 17 0 18 0;
#X connect 18 0 7 0;
#X connect 18 0 5 0;
#X restore 1525 1962 pd sampledue;
#X msg 1526 1934 ./samples/z.wav;
#X obj 1367 2131 *~;
#X obj 1569 2128 *~;
#X msg 1097 2051 0.05;
#X obj 1139 1891 metro 60000;
#X msg 1137 2053 0.2;
#X msg 1175 2056 0.2;
#X obj 184 154 r arch_details;
#X obj 428 154 r arch_views;
#X obj 667 154 r bestiary;
#X obj 974 154 r bodies;
#X obj 1202 154 r details;
#X obj 1455 155 r faces;
#X obj 1671 153 r surfaces;
#X obj 1764 296 soundfiler;
#X floatatom 1764 325 13 0 0 0 - - - 0 0 1, f 13;
#X obj 1916 283 bng 41 250 50 0 empty empty empty 17 7 0 10 #fcfcfc
#000000 #000000 1;
#X obj 1763 396 random;
#X obj 1757 232 pack s \$0;
#X obj 1750 564 line~;
#X obj 1761 456 t f f;
#X obj 1767 527 pack f f;
#X obj 1767 498 + 44100;
#X floatatom 1861 396 5 0 0 0 - - - 0 0 1, f 5;
#X obj 1861 424 sel 0 1 2;
#X msg 1879 480 1000;
#X msg 1925 480 500;
#X msg 1838 480 2000;
#X obj 1861 367 random 3;
#X obj 1861 453 bng 15 250 50 0 empty empty empty 17 7 0 10 #fcfcfc
#000000 #000000 1;
#X obj 1881 453 bng 15 250 50 0 empty empty empty 17 7 0 10 #fcfcfc
#000000 #000000 1;
#X obj 1904 453 bng 15 250 50 0 empty empty empty 17 7 0 10 #fcfcfc
#000000 #000000 1;
#X floatatom 1763 425 5 0 0 0 - - - 0 0 1, f 5;
#X obj 1764 353 - 22000;
#X obj 1831 414 bng 15 250 50 0 empty empty empty 17 7 0 10 #fcfcfc
#000000 #000000 1;
#X obj 1894 217 table otto;
#X msg 1766 263 read -resize \$1 otto;
#X obj 1751 593 tabread4~ otto;
#X obj 1911 164 r views;
#X msg 1755 206 ./samples/h.wav;
#X connect 0 0 1 0;
#X connect 1 0 9 0;
#X connect 2 0 3 0;
#X connect 2 0 16 0;
#X connect 3 0 7 0;
#X connect 4 0 257 0;
#X connect 4 0 258 0;
#X connect 4 0 260 0;
#X connect 4 0 261 0;
#X connect 4 0 262 0;
#X connect 4 0 259 0;
#X connect 4 0 263 0;
#X connect 4 0 409 0;
#X connect 5 0 266 0;
#X connect 6 0 267 0;
#X connect 7 0 10 0;
#X connect 7 1 6 0;
#X connect 8 0 6 0;
#X connect 9 0 3 1;
#X connect 10 0 8 0;
#X connect 11 0 12 0;
#X connect 11 0 291 0;
#X connect 12 0 17 0;
#X connect 12 1 18 0;
#X connect 12 2 19 0;
#X connect 13 0 8 1;
#X connect 14 0 8 1;
#X connect 15 0 8 1;
#X connect 16 0 11 0;
#X connect 17 0 15 0;
#X connect 18 0 13 0;
#X connect 19 0 14 0;
#X connect 20 0 21 0;
#X connect 20 0 144 0;
#X connect 21 0 22 0;
#X connect 22 0 270 0;
#X connect 23 0 24 0;
#X connect 24 0 42 0;
#X connect 25 0 26 0;
#X connect 25 0 37 0;
#X connect 26 0 29 0;
#X connect 26 0 41 0;
#X connect 27 0 268 0;
#X connect 28 0 269 0;
#X connect 29 0 31 0;
#X connect 29 1 28 0;
#X connect 30 0 28 0;
#X connect 31 0 30 0;
#X connect 32 0 33 0;
#X connect 32 0 292 0;
#X connect 33 0 38 0;
#X connect 33 1 39 0;
#X connect 33 2 40 0;
#X connect 34 0 30 1;
#X connect 35 0 30 1;
#X connect 36 0 30 1;
#X connect 37 0 32 0;
#X connect 38 0 36 0;
#X connect 39 0 34 0;
#X connect 40 0 35 0;
#X connect 42 0 26 1;
#X connect 43 0 44 0;
#X connect 44 0 62 0;
#X connect 45 0 46 0;
#X connect 45 0 57 0;
#X connect 46 0 49 0;
#X connect 46 0 61 0;
#X connect 47 0 273 0;
#X connect 48 0 274 0;
#X connect 49 0 51 0;
#X connect 49 1 48 0;
#X connect 50 0 48 0;
#X connect 51 0 50 0;
#X connect 52 0 53 0;
#X connect 52 0 293 0;
#X connect 53 0 58 0;
#X connect 53 1 59 0;
#X connect 53 2 60 0;
#X connect 54 0 50 1;
#X connect 55 0 50 1;
#X connect 56 0 50 1;
#X connect 57 0 52 0;
#X connect 58 0 56 0;
#X connect 59 0 54 0;
#X connect 60 0 55 0;
#X connect 62 0 46 1;
#X connect 63 0 64 0;
#X connect 64 0 82 0;
#X connect 65 0 66 0;
#X connect 65 0 77 0;
#X connect 66 0 69 0;
#X connect 66 0 81 0;
#X connect 67 0 276 0;
#X connect 68 0 277 0;
#X connect 69 0 71 0;
#X connect 69 1 68 0;
#X connect 70 0 68 0;
#X connect 71 0 70 0;
#X connect 72 0 73 0;
#X connect 72 0 294 0;
#X connect 73 0 78 0;
#X connect 73 1 79 0;
#X connect 73 2 80 0;
#X connect 74 0 70 1;
#X connect 75 0 70 1;
#X connect 76 0 70 1;
#X connect 77 0 72 0;
#X connect 78 0 76 0;
#X connect 79 0 74 0;
#X connect 80 0 75 0;
#X connect 82 0 66 1;
#X connect 83 0 84 0;
#X connect 84 0 102 0;
#X connect 85 0 86 0;
#X connect 85 0 97 0;
#X connect 86 0 89 0;
#X connect 86 0 101 0;
#X connect 87 0 279 0;
#X connect 88 0 280 0;
#X connect 89 0 91 0;
#X connect 89 1 88 0;
#X connect 90 0 88 0;
#X connect 91 0 90 0;
#X connect 92 0 93 0;
#X connect 92 0 290 0;
#X connect 93 0 98 0;
#X connect 93 1 99 0;
#X connect 93 2 100 0;
#X connect 94 0 90 1;
#X connect 95 0 90 1;
#X connect 96 0 90 1;
#X connect 97 0 92 0;
#X connect 98 0 96 0;
#X connect 99 0 94 0;
#X connect 100 0 95 0;
#X connect 102 0 86 1;
#X connect 103 0 104 0;
#X connect 104 0 122 0;
#X connect 105 0 106 0;
#X connect 105 0 117 0;
#X connect 106 0 109 0;
#X connect 106 0 121 0;
#X connect 107 0 282 0;
#X connect 108 0 283 0;
#X connect 109 0 111 0;
#X connect 109 1 108 0;
#X connect 110 0 108 0;
#X connect 111 0 110 0;
#X connect 112 0 113 0;
#X connect 112 0 295 0;
#X connect 113 0 118 0;
#X connect 113 1 119 0;
#X connect 113 2 120 0;
#X connect 114 0 110 1;
#X connect 115 0 110 1;
#X connect 116 0 110 1;
#X connect 117 0 112 0;
#X connect 118 0 116 0;
#X connect 119 0 114 0;
#X connect 120 0 115 0;
#X connect 122 0 106 1;
#X connect 123 0 124 0;
#X connect 124 0 142 0;
#X connect 125 0 126 0;
#X connect 125 0 137 0;
#X connect 126 0 129 0;
#X connect 126 0 141 0;
#X connect 127 0 285 0;
#X connect 128 0 286 0;
#X connect 129 0 131 0;
#X connect 129 1 128 0;
#X connect 130 0 128 0;
#X connect 131 0 130 0;
#X connect 132 0 133 0;
#X connect 132 0 296 0;
#X connect 133 0 138 0;
#X connect 133 1 139 0;
#X connect 133 2 140 0;
#X connect 134 0 130 1;
#X connect 135 0 130 1;
#X connect 136 0 130 1;
#X connect 137 0 132 0;
#X connect 138 0 136 0;
#X connect 139 0 134 0;
#X connect 140 0 135 0;
#X connect 142 0 126 1;
#X connect 143 0 22 1;
#X connect 144 0 143 0;
#X connect 144 0 149 0;
#X connect 144 0 147 0;
#X connect 145 0 146 1;
#X connect 146 0 151 0;
#X connect 146 0 151 1;
#X connect 147 0 150 0;
#X connect 148 0 147 1;
#X connect 149 0 145 0;
#X connect 150 0 145 0;
#X connect 152 0 20 0;
#X connect 153 0 148 0;
#X connect 154 0 155 0;
#X connect 154 0 158 0;
#X connect 155 0 156 0;
#X connect 156 0 271 0;
#X connect 157 0 156 1;
#X connect 158 0 157 0;
#X connect 158 0 163 0;
#X connect 158 0 161 0;
#X connect 159 0 160 1;
#X connect 160 0 151 1;
#X connect 160 0 151 0;
#X connect 161 0 164 0;
#X connect 162 0 161 1;
#X connect 163 0 159 0;
#X connect 164 0 159 0;
#X connect 165 0 166 0;
#X connect 165 0 169 0;
#X connect 166 0 167 0;
#X connect 167 0 287 0;
#X connect 168 0 167 1;
#X connect 169 0 168 0;
#X connect 169 0 174 0;
#X connect 169 0 172 0;
#X connect 170 0 171 1;
#X connect 171 0 151 0;
#X connect 171 0 151 1;
#X connect 172 0 175 0;
#X connect 173 0 172 1;
#X connect 174 0 170 0;
#X connect 175 0 170 0;
#X connect 176 0 154 0;
#X connect 177 0 165 0;
#X connect 178 0 162 0;
#X connect 179 0 173 0;
#X connect 180 0 236 0;
#X connect 181 0 235 0;
#X connect 184 0 213 0;
#X connect 184 0 214 1;
#X connect 184 0 181 0;
#X connect 185 0 180 0;
#X connect 186 0 221 0;
#X connect 186 0 222 0;
#X connect 186 0 244 0;
#X connect 187 0 210 0;
#X connect 188 0 206 0;
#X connect 189 0 212 0;
#X connect 189 0 188 0;
#X connect 189 0 215 0;
#X connect 190 0 223 0;
#X connect 190 0 250 0;
#X connect 191 0 190 0;
#X connect 192 0 233 0;
#X connect 193 0 192 0;
#X connect 194 0 204 0;
#X connect 195 0 199 0;
#X connect 196 0 200 0;
#X connect 197 0 201 0;
#X connect 198 0 202 0;
#X connect 199 0 216 0;
#X connect 200 0 217 0;
#X connect 201 0 218 0;
#X connect 202 0 220 0;
#X connect 203 0 195 0;
#X connect 203 0 196 0;
#X connect 203 0 197 0;
#X connect 203 0 198 0;
#X connect 203 0 208 0;
#X connect 204 0 240 0;
#X connect 205 0 191 0;
#X connect 205 0 194 0;
#X connect 205 0 187 0;
#X connect 205 0 211 0;
#X connect 205 0 222 0;
#X connect 205 0 221 0;
#X connect 205 0 251 0;
#X connect 206 0 230 0;
#X connect 207 0 189 0;
#X connect 207 0 243 0;
#X connect 208 0 209 0;
#X connect 209 0 219 0;
#X connect 210 0 186 0;
#X connect 211 0 254 0;
#X connect 213 0 229 0;
#X connect 214 0 228 0;
#X connect 215 0 206 0;
#X connect 216 0 189 0;
#X connect 216 0 243 0;
#X connect 217 0 189 0;
#X connect 217 0 243 0;
#X connect 218 0 207 0;
#X connect 219 0 189 0;
#X connect 219 0 243 0;
#X connect 220 0 189 0;
#X connect 220 0 243 0;
#X connect 221 0 184 0;
#X connect 222 0 185 0;
#X connect 223 0 225 0;
#X connect 224 0 183 0;
#X connect 224 0 252 0;
#X connect 225 0 226 0;
#X connect 226 0 224 0;
#X connect 227 0 228 1;
#X connect 227 0 229 1;
#X connect 228 0 246 0;
#X connect 229 0 246 0;
#X connect 230 0 246 0;
#X connect 231 0 232 0;
#X connect 232 0 237 0;
#X connect 233 0 231 0;
#X connect 234 0 235 1;
#X connect 234 0 236 1;
#X connect 234 0 230 1;
#X connect 235 0 246 0;
#X connect 236 0 246 0;
#X connect 237 0 253 0;
#X connect 237 0 182 0;
#X connect 238 0 297 0;
#X connect 240 0 241 0;
#X connect 241 0 242 0;
#X connect 242 0 203 0;
#X connect 245 0 358 0;
#X connect 246 0 245 0;
#X connect 247 0 255 0;
#X connect 248 0 249 0;
#X connect 249 0 245 1;
#X connect 250 0 247 0;
#X connect 251 0 193 0;
#X connect 252 0 227 0;
#X connect 253 0 234 0;
#X connect 254 0 238 0;
#X connect 255 0 248 0;
#X connect 257 0 5 0;
#X connect 258 0 27 0;
#X connect 259 0 107 0;
#X connect 260 0 47 0;
#X connect 261 0 67 0;
#X connect 262 0 87 0;
#X connect 263 0 127 0;
#X connect 266 0 0 0;
#X connect 266 0 2 0;
#X connect 267 0 256 0;
#X connect 267 0 256 1;
#X connect 268 0 23 0;
#X connect 268 0 25 0;
#X connect 269 0 256 0;
#X connect 269 0 256 1;
#X connect 270 0 146 0;
#X connect 271 0 160 0;
#X connect 273 0 43 0;
#X connect 273 0 45 0;
#X connect 274 0 256 0;
#X connect 274 0 256 1;
#X connect 276 0 63 0;
#X connect 276 0 65 0;
#X connect 277 0 256 0;
#X connect 277 0 256 1;
#X connect 279 0 83 0;
#X connect 279 0 85 0;
#X connect 280 0 256 0;
#X connect 280 0 256 1;
#X connect 282 0 103 0;
#X connect 282 0 105 0;
#X connect 283 0 256 0;
#X connect 283 0 256 1;
#X connect 285 0 123 0;
#X connect 285 0 125 0;
#X connect 286 0 256 0;
#X connect 286 0 256 1;
#X connect 287 0 171 0;
#X connect 288 0 289 0;
#X connect 289 0 148 0;
#X connect 289 0 162 0;
#X connect 289 0 173 0;
#X connect 290 0 90 0;
#X connect 291 0 8 0;
#X connect 292 0 30 0;
#X connect 293 0 50 0;
#X connect 294 0 70 0;
#X connect 295 0 110 0;
#X connect 296 0 130 0;
#X connect 297 0 210 1;
#X connect 297 0 239 0;
#X connect 298 0 299 0;
#X connect 299 0 303 0;
#X connect 299 0 318 0;
#X connect 300 0 308 0;
#X connect 300 1 301 1;
#X connect 300 2 310 0;
#X connect 301 0 302 0;
#X connect 302 0 309 0;
#X connect 302 1 304 0;
#X connect 302 2 307 0;
#X connect 303 0 305 1;
#X connect 303 0 299 1;
#X connect 303 0 313 0;
#X connect 304 0 305 0;
#X connect 305 0 307 0;
#X connect 306 0 312 1;
#X connect 307 0 315 0;
#X connect 308 0 301 0;
#X connect 309 0 306 0;
#X connect 310 0 306 0;
#X connect 311 0 303 1;
#X connect 312 0 319 0;
#X connect 313 0 304 1;
#X connect 314 0 300 0;
#X connect 315 0 312 0;
#X connect 316 0 315 0;
#X connect 317 0 298 0;
#X connect 318 0 300 0;
#X connect 319 0 323 0;
#X connect 319 0 323 1;
#X connect 320 0 319 1;
#X connect 321 0 320 0;
#X connect 321 0 330 0;
#X connect 322 0 320 0;
#X connect 324 0 321 0;
#X connect 325 0 322 0;
#X connect 326 0 357 0;
#X connect 327 0 316 0;
#X connect 328 0 335 0;
#X connect 329 0 336 0;
#X connect 330 0 341 0;
#X connect 330 0 345 0;
#X connect 330 0 356 0;
#X connect 331 0 337 0;
#X connect 332 0 338 0;
#X connect 333 0 339 0;
#X connect 334 0 340 0;
#X connect 335 0 315 0;
#X connect 336 0 315 0;
#X connect 337 0 315 0;
#X connect 338 0 315 0;
#X connect 339 0 315 0;
#X connect 340 0 315 0;
#X connect 341 0 342 0;
#X connect 342 0 311 0;
#X connect 344 0 346 0;
#X connect 345 0 344 0;
#X connect 346 0 347 0;
#X connect 346 1 348 0;
#X connect 346 2 349 0;
#X connect 347 0 313 1;
#X connect 348 0 313 1;
#X connect 349 0 313 1;
#X connect 350 0 358 1;
#X connect 351 0 355 0;
#X connect 351 0 359 0;
#X connect 352 0 343 0;
#X connect 353 0 352 1;
#X connect 353 0 371 1;
#X connect 354 0 352 0;
#X connect 354 1 371 0;
#X connect 355 0 354 0;
#X connect 356 0 326 0;
#X connect 357 0 327 0;
#X connect 357 1 328 0;
#X connect 357 2 329 0;
#X connect 357 3 331 0;
#X connect 357 4 332 0;
#X connect 357 5 333 0;
#X connect 357 6 334 0;
#X connect 358 0 343 0;
#X connect 358 0 343 1;
#X connect 359 0 374 0;
#X connect 360 0 361 0;
#X connect 361 0 362 0;
#X connect 362 0 364 0;
#X connect 362 1 373 0;
#X connect 362 1 363 0;
#X connect 362 1 376 0;
#X connect 362 2 373 0;
#X connect 362 2 365 0;
#X connect 362 2 375 0;
#X connect 363 0 353 0;
#X connect 364 0 375 0;
#X connect 364 0 376 0;
#X connect 364 0 350 0;
#X connect 365 0 368 0;
#X connect 366 0 370 0;
#X connect 367 0 343 0;
#X connect 368 0 367 1;
#X connect 368 0 372 1;
#X connect 369 0 367 0;
#X connect 369 1 372 0;
#X connect 370 0 369 0;
#X connect 371 0 343 1;
#X connect 372 0 343 1;
#X connect 373 0 350 0;
#X connect 374 0 360 0;
#X connect 375 0 353 0;
#X connect 376 0 368 0;
#X connect 377 0 2 0;
#X connect 378 0 25 0;
#X connect 379 0 45 0;
#X connect 380 0 65 0;
#X connect 381 0 85 0;
#X connect 382 0 105 0;
#X connect 383 0 125 0;
#X connect 384 0 385 0;
#X connect 385 0 403 0;
#X connect 386 0 387 0;
#X connect 386 0 398 0;
#X connect 387 0 390 0;
#X connect 387 0 402 0;
#X connect 388 0 406 0;
#X connect 389 0 407 0;
#X connect 390 0 392 0;
#X connect 390 1 389 0;
#X connect 391 0 389 0;
#X connect 392 0 391 0;
#X connect 393 0 394 0;
#X connect 393 0 404 0;
#X connect 394 0 399 0;
#X connect 394 1 400 0;
#X connect 394 2 401 0;
#X connect 395 0 391 1;
#X connect 396 0 391 1;
#X connect 397 0 391 1;
#X connect 398 0 393 0;
#X connect 399 0 397 0;
#X connect 400 0 395 0;
#X connect 401 0 396 0;
#X connect 403 0 387 1;
#X connect 404 0 391 0;
#X connect 406 0 384 0;
#X connect 406 0 386 0;
#X connect 407 0 256 0;
#X connect 407 0 256 1;
#X connect 408 0 386 0;
#X connect 409 0 388 0;
